<svg xmlns="http://www.w3.org/2000/svg" version="1.1" xmlns:xlink="http://www.w3.org/1999/xlink" xmlns:svgjs="http://svgjs.dev/svgjs" width="1500" height="446" viewBox="0 0 1500 446"><g transform="matrix(1,0,0,1,-0.9090909090909918,-0.2636844201862516)"><svg viewBox="0 0 396 118" data-background-color="#000000" preserveAspectRatio="xMidYMid meet" height="446" width="1500" xmlns="http://www.w3.org/2000/svg" xmlns:xlink="http://www.w3.org/1999/xlink"><g id="tight-bounds" transform="matrix(1,0,0,1,0.2400000000000091,0.06976403942147158)"><svg viewBox="0 0 395.52 117.86047192115706" height="117.86047192115706" width="395.52"><rect width="395.52" height="117.86047192115706" fill="url(#6314930d-b948-426c-bd52-e1fb77d30bec)" mask="url(#b55d5324-07a3-4def-9753-375fc4e2c2d3)" data-fill-palette-color="tertiary"></rect><g><svg viewBox="0 0 395.52 117.86047192115706" height="117.86047192115706" width="395.52"><g transform="matrix(1,0,0,1,0,85.98724357470036)"><svg viewBox="0 0 395.52 31.873228346456692" height="31.873228346456692" width="395.52"><g id="textblocktransform"><svg viewBox="0 0 395.52 31.873228346456692" height="31.873228346456692" width="395.52" id="textblock"><g><svg viewBox="0 0 395.52 31.873228346456692" height="31.873228346456692" width="395.52"><g transform="matrix(1,0,0,1,0,0)"><svg width="395.52" viewBox="-8.3 -32 406.37 32.75" height="31.873228346456692" data-palette-color="url(#f8d25b7a-f099-46dd-8aa4-e64c7ee9dade)"></svg></g></svg></g></svg></g></svg></g><g transform="matrix(1,0,0,1,162.29088246776791,0)"><svg viewBox="0 0 70.93823506446414 70.93823506446414" height="70.93823506446414" width="70.93823506446414"><g><svg></svg></g><g id="icon-0"><svg viewBox="0 0 70.93823506446414 70.93823506446414" height="70.93823506446414" width="70.93823506446414"><g><path d="M0 35.469c0-19.589 15.88-35.469 35.469-35.469 19.589 0 35.469 15.88 35.469 35.469 0 19.589-15.88 35.469-35.469 35.469-19.589 0-35.469-15.88-35.469-35.469zM35.469 68.064c18.002 0 32.595-14.593 32.595-32.595 0-18.002-14.593-32.595-32.595-32.595-18.002 0-32.595 14.593-32.595 32.595 0 18.002 14.593 32.595 32.595 32.595z" data-fill-palette-color="tertiary" fill="url(#6314930d-b948-426c-bd52-e1fb77d30bec)" stroke="transparent"></path></g><g transform="matrix(1,0,0,1,19.202275515586603,21.063097501855545)"><svg viewBox="0 0 32.53368403329093 28.812040060753052" height="28.812040060753052" width="32.53368403329093"><g><svg xmlns="http://www.w3.org/2000/svg" xmlns:xlink="http://www.w3.org/1999/xlink" version="1.1" x="0" y="0" viewBox="25.899860075925623 52.199999999999996 460.2501399240743 407.6004874176015" style="enable-background:new 0 0 512 512;" xml:space="preserve" height="28.812040060753052" width="32.53368403329093" class="icon-cg-0" data-fill-palette-color="accent" id="cg-0"></svg></g></svg></g></svg></g></svg></g><g></g></svg></g><defs></defs><mask id="037d5777-3308-47e5-b81d-ce892e467895"><g id="SvgjsG3143"><svg viewBox="0 0 395.52 117.86047192115706" height="117.86047192115706" width="395.52"><g><svg viewBox="0 0 395.52 117.86047192115706" height="117.86047192115706" width="395.52"><g transform="matrix(1,0,0,1,0,85.98724357470036)"><svg viewBox="0 0 395.52 31.873228346456692" height="31.873228346456692" width="395.52"><g id="SvgjsG3142"><svg viewBox="0 0 395.52 31.873228346456692" height="31.873228346456692" width="395.52" id="SvgjsSvg3141"><g><svg viewBox="0 0 395.52 31.873228346456692" height="31.873228346456692" width="395.52"><g transform="matrix(1,0,0,1,0,0)"><svg width="395.52" viewBox="-8.3 -32 406.37 32.75" height="31.873228346456692" data-palette-color="url(#f8d25b7a-f099-46dd-8aa4-e64c7ee9dade)"><path d="M21.9 0.75L21.9 0.75Q18.95 0.75 16.13 0.43 13.3 0.1 10.65-0.55L10.65-0.55 13.45-8.8Q15.35-8.3 17.55-7.98 19.75-7.65 21.7-7.65L21.7-7.65Q23.3-7.65 24.5-7.73 25.7-7.8 26.8-7.95L26.8-7.95 27.2-10.45 23.05-10.85Q18.15-11.35 16.25-13.08 14.35-14.8 14.35-17.8L14.35-17.8Q14.35-19.15 14.65-20.8L14.65-20.8Q15.45-25.05 16.98-27.5 18.5-29.95 21.35-30.98 24.2-32 28.9-32L28.9-32Q31.65-32 34.3-31.7 36.95-31.4 39.4-30.75L39.4-30.75 36.8-22.75Q34.85-23.1 33.1-23.3 31.35-23.5 29.2-23.5L29.2-23.5Q28.05-23.5 27.25-23.45 26.45-23.4 25.3-23.25L25.3-23.25 24.9-20.8 28.25-20.45Q31.85-20.1 33.9-19.07 35.95-18.05 36.8-16.53 37.65-15 37.65-13L37.65-13Q37.65-12.4 37.58-11.78 37.5-11.15 37.4-10.45L37.4-10.45Q36.7-6.4 35.15-4.1 33.6-1.8 31.5-0.78 29.4 0.25 26.93 0.5 24.45 0.75 21.9 0.75ZM16.15-29.2L16.15-29.2-3.15-31.25 18.35-31.25Q17.7-30.85 17.18-30.33 16.65-29.8 16.15-29.2ZM14.6-26.45L13.85-24.25-6.9-26.45 14.6-26.45ZM12.9-19.4L12.9-19.4-8.3-21.65 13.25-21.65Q13.2-21.5 13.18-21.35 13.15-21.2 13.15-21.05L13.15-21.05Q13.1-20.7 13.03-20.3 12.95-19.9 12.9-19.4ZM13.3-14.6L13.3-14.6-7.85-16.85 12.9-16.85Q12.95-16.2 13.03-15.68 13.1-15.15 13.3-14.6ZM19.9-9.8L19.9-9.8-6.55-12.05 15-12.05Q16.65-10.45 19.9-9.8ZM11.3-7.25L10.55-5.05-7.4-7.25 11.3-7.25ZM9.7-2.4L8.95-0.2-8.25-2.4 9.7-2.4ZM60.5 0.6L60.5 0.6Q55.05 0.6 52.87-1.53 50.7-3.65 50.7-7.9L50.7-7.9Q50.7-9.05 50.85-10.4 51-11.75 51.25-13.2L51.25-13.2Q52.05-17.8 53.6-20.85 55.15-23.9 57.95-25.43 60.75-26.95 65.35-26.95L65.35-26.95Q70.85-26.95 73.1-24.83 75.35-22.7 75.35-18.4L75.35-18.4Q75.35-17.3 75.2-15.98 75.05-14.65 74.8-13.2L74.8-13.2Q74-8.65 72.45-5.58 70.9-2.5 68.05-0.95 65.2 0.6 60.5 0.6ZM54.5-24.8L54.5-24.8 39.15-26.45 56.55-26.45Q55.35-25.75 54.5-24.8ZM51.35-19.65L51.35-19.65 32.45-21.65 52.2-21.65Q52-21.15 51.77-20.68 51.55-20.2 51.35-19.65ZM60.85-17.5L59-7 61.95-7Q63.25-7 64.07-7.3 64.9-7.6 65.1-8.9L65.1-8.9 67-19.35 63.95-19.35Q62.75-19.35 61.9-19.05 61.05-18.75 60.85-17.5L60.85-17.5ZM50.45-16.85L50-14.75 30.45-16.85 50.45-16.85ZM49.25-9.95L49.25-9.95 29.55-12.05 49.5-12.05Q49.45-11.5 49.37-10.98 49.3-10.45 49.25-9.95ZM49.4-5.15L49.4-5.15 29.75-7.25 49.2-7.25Q49.2-6.7 49.27-6.18 49.35-5.65 49.4-5.15ZM51.55-0.55L51.55-0.55 34.1-2.4 50.25-2.4Q50.5-1.9 50.82-1.43 51.15-0.95 51.55-0.55ZM96.45 0L88.05 0 92.65-26.45 109.3-26.45 107-18.95 99.75-18.95 99.15-15.55 105.75-15.55 104.75-9.6 98.15-9.6 96.45 0ZM91.05-26.45L90.7-24.2 69.5-26.45 91.05-26.45ZM90.25-21.65L89.85-19.4 68.65-21.65 90.25-21.65ZM89.4-16.85L89-14.6 67.8-16.85 89.4-16.85ZM88.55-12.05L88.15-9.8 66.95-12.05 88.55-12.05ZM87.7-7.25L87.3-5 66.1-7.25 87.7-7.25ZM86.85-2.4L86.45-0.15 65.25-2.4 86.85-2.4ZM130.04 0L121.24 0 124.54-18.95 118.99-18.95 120.34-26.45 140.09-26.45 138.74-18.95 133.34-18.95 130.04 0ZM118.69-26.45L118.34-24.2 97.14-26.45 118.69-26.45ZM117.89-21.65L117.49-19.4 96.29-21.65 117.89-21.65ZM122.69-16.85L122.29-14.6 101.09-16.85 122.69-16.85ZM121.84-12.05L121.44-9.8 100.24-12.05 121.84-12.05ZM120.99-7.25L120.59-5 99.39-7.25 120.99-7.25ZM120.14-2.4L119.74-0.15 98.54-2.4 120.14-2.4ZM166.39 0L148.74 0 153.34-26.45 170.94-26.45 168.59-18.95 160.44-18.95 159.84-15.55 167.34-15.55 166.49-10.75 159.04-10.75 158.44-7.35 167.69-7.35 166.39 0ZM151.69-26.45L151.34-24.2 130.14-26.45 151.69-26.45ZM150.89-21.65L150.49-19.4 129.29-21.65 150.89-21.65ZM150.04-16.85L149.64-14.6 128.44-16.85 150.04-16.85ZM149.19-12.05L148.79-9.8 127.59-12.05 149.19-12.05ZM148.34-7.25L147.94-5 126.74-7.25 148.34-7.25ZM147.49-2.4L147.09-0.15 125.89-2.4 147.49-2.4ZM191.34 0.6L191.34 0.6Q185.84 0.6 183.64-1.5 181.44-3.6 181.44-7.8L181.44-7.8Q181.44-8.95 181.61-10.33 181.79-11.7 182.04-13.2L182.04-13.2Q182.84-17.8 184.34-20.85 185.84-23.9 188.66-25.43 191.49-26.95 196.19-26.95L196.19-26.95Q197.14-26.95 198.46-26.85 199.79-26.75 200.99-26.5 202.19-26.25 202.84-25.85L202.84-25.85 200.29-18.9Q198.94-19.3 197.61-19.45 196.29-19.6 195.54-19.6L195.54-19.6Q193.79-19.6 192.91-19.28 192.04-18.95 191.84-17.9L191.84-17.9 189.89-7.2Q190.69-7 191.34-6.98 191.99-6.95 192.64-6.95L192.64-6.95Q194.24-6.95 195.96-7.25 197.69-7.55 199.09-8.05L199.09-8.05 198.29-0.55Q196.74 0.1 195.06 0.35 193.39 0.6 191.34 0.6ZM185.29-24.8L185.29-24.8 169.94-26.45 187.34-26.45Q186.14-25.75 185.29-24.8ZM182.14-19.65L182.14-19.65 163.24-21.65 182.99-21.65Q182.79-21.15 182.56-20.68 182.34-20.2 182.14-19.65ZM181.24-16.85L180.79-14.75 161.24-16.85 181.24-16.85ZM180.04-9.95L180.04-9.95 160.34-12.05 180.29-12.05Q180.24-11.5 180.16-10.98 180.09-10.45 180.04-9.95ZM180.19-5.15L180.19-5.15 160.54-7.25 179.99-7.25Q179.99-6.7 180.06-6.18 180.14-5.65 180.19-5.15ZM182.34-0.55L182.34-0.55 164.89-2.4 181.04-2.4Q181.29-1.9 181.61-1.43 181.94-0.95 182.34-0.55ZM220.94 0L212.54 0 217.14-26.45 225.59-26.45 223.94-17.3 229.59-17.3 231.19-26.45 239.64-26.45 234.99 0 226.59 0 228.14-9.15 222.54-9.15 220.94 0ZM215.49-26.45L215.14-24.2 193.94-26.45 215.49-26.45ZM214.69-21.65L214.29-19.4 193.09-21.65 214.69-21.65ZM213.84-16.85L213.44-14.6 192.24-16.85 213.84-16.85ZM212.99-12.05L212.59-9.8 191.39-12.05 212.99-12.05ZM212.14-7.25L211.74-5 190.54-7.25 212.14-7.25ZM211.29-2.4L210.89-0.15 189.69-2.4 211.29-2.4ZM272.98 0.75L272.98 0.75Q266.48 0.75 263.86-1.78 261.23-4.3 261.23-9.25L261.23-9.25Q261.23-10.65 261.43-12.23 261.63-13.8 261.93-15.6L261.93-15.6Q262.63-19.65 263.81-22.73 264.98-25.8 266.98-27.88 268.98-29.95 272.11-30.98 275.23-32 279.83-32L279.83-32Q281.08-32 282.83-31.8 284.58-31.6 286.23-31.33 287.88-31.05 288.78-30.7L288.78-30.7 286.03-23.05Q284.23-23.4 282.28-23.58 280.33-23.75 279.03-23.75L279.03-23.75Q276.23-23.75 274.78-23.3 273.33-22.85 273.08-21.25L273.08-21.25 270.63-7.1 273.78-7.1Q275.23-7.1 276.18-7.43 277.13-7.75 277.38-9.2L277.38-9.2 277.63-10.55 275.23-10.55 276.58-18.2 288.03-18.2 285.08-1.5Q281.93-0.35 278.71 0.2 275.48 0.75 272.98 0.75ZM266.43-29.6L266.43-29.6 251.13-31.25 268.68-31.25Q268.08-30.9 267.53-30.5 266.98-30.1 266.43-29.6ZM262.93-24.45L262.93-24.45 244.23-26.45 263.93-26.45Q263.68-25.95 263.43-25.48 263.18-25 262.93-24.45ZM261.88-21.65L261.28-19.6 241.88-21.65 261.88-21.65ZM260.33-14.75L260.33-14.75 240.68-16.85 260.68-16.85 260.53-15.85Q260.48-15.55 260.43-15.28 260.38-15 260.33-14.75ZM259.83-9.95L259.83-9.95 240.13-12.05 259.98-12.05Q259.83-10.95 259.83-9.95ZM260.23-5.15L260.23-5.15 240.78-7.25 259.88-7.25Q259.98-6.7 260.06-6.18 260.13-5.65 260.23-5.15ZM262.88-0.55L262.88-0.55 245.58-2.4 261.38-2.4Q262.03-1.25 262.88-0.55ZM310.08 0.6L310.08 0.6Q304.93 0.6 302.88-0.93 300.83-2.45 300.83-6.25L300.83-6.25Q300.83-7.4 300.98-8.7 301.13-10 301.38-11.55L301.38-11.55 304.03-26.45 312.43-26.45 309.03-7 311.53-7Q312.78-7 313.35-7.3 313.93-7.6 314.13-8.9L314.13-8.9 317.28-26.45 325.68-26.45 323.08-11.55Q322.28-7 320.93-4.33 319.58-1.65 317.03-0.53 314.48 0.6 310.08 0.6ZM302.43-26.45L302.08-24.2 280.88-26.45 302.43-26.45ZM301.63-21.65L301.23-19.4 280.03-21.65 301.63-21.65ZM300.78-16.85L300.38-14.6 279.18-16.85 300.78-16.85ZM299.93-12.05L299.53-9.8 278.33-12.05 299.93-12.05ZM299.38-5L299.38-5 278.18-7.25 299.33-7.25 299.33-6.25Q299.33-5.9 299.33-5.6 299.33-5.3 299.38-5ZM301.28-0.15L301.28-0.15 280.08-2.4 299.83-2.4Q300.38-1 301.28-0.15ZM344.23 0L335.83 0 340.43-26.45 353.13-26.45Q355.93-26.45 357.5-25.6 359.08-24.75 359.75-23.25 360.43-21.75 360.43-19.85L360.43-19.85Q360.43-18.35 360-16.2 359.58-14.05 358.45-12.03 357.33-10 355.18-8.8L355.18-8.8 358.03 0 348.68 0 346.78-7.7 345.58-7.7 344.23 0ZM338.78-26.45L338.43-24.2 317.23-26.45 338.78-26.45ZM337.98-21.65L337.58-19.4 316.38-21.65 337.98-21.65ZM347.58-19.15L346.78-14.55 348.38-14.55Q349.38-14.55 350.1-14.83 350.83-15.1 350.98-16.05L350.98-16.05 351.28-17.8Q351.28-17.9 351.3-17.98 351.33-18.05 351.33-18.1L351.33-18.1Q351.33-18.8 350.6-18.98 349.88-19.15 348.68-19.15L348.68-19.15 347.58-19.15ZM337.13-16.85L336.73-14.6 315.53-16.85 337.13-16.85ZM336.28-12.05L335.88-9.8 314.68-12.05 336.28-12.05ZM335.43-7.25L335.03-5 313.83-7.25 335.43-7.25ZM334.58-2.4L334.18-0.15 312.98-2.4 334.58-2.4ZM382.47 0.6L382.47 0.6Q377.32 0.6 375.27-0.93 373.22-2.45 373.22-6.25L373.22-6.25Q373.22-7.4 373.37-8.7 373.52-10 373.77-11.55L373.77-11.55 376.42-26.45 384.82-26.45 381.42-7 383.92-7Q385.17-7 385.75-7.3 386.32-7.6 386.52-8.9L386.52-8.9 389.67-26.45 398.07-26.45 395.47-11.55Q394.67-7 393.32-4.33 391.97-1.65 389.42-0.53 386.87 0.6 382.47 0.6ZM374.82-26.45L374.47-24.2 353.27-26.45 374.82-26.45ZM374.02-21.65L373.62-19.4 352.42-21.65 374.02-21.65ZM373.17-16.85L372.77-14.6 351.57-16.85 373.17-16.85ZM372.32-12.05L371.92-9.8 350.72-12.05 372.32-12.05ZM371.77-5L371.77-5 350.57-7.25 371.72-7.25 371.72-6.25Q371.72-5.9 371.72-5.6 371.72-5.3 371.77-5ZM373.67-0.15L373.67-0.15 352.47-2.4 372.22-2.4Q372.77-1 373.67-0.15Z" opacity="1" transform="matrix(1,0,0,1,0,0)" fill="white" class="wordmark-text-0" id="SvgjsPath3140"></path></svg></g></svg></g></svg></g></svg></g><g transform="matrix(1,0,0,1,162.29088246776791,0)"><svg viewBox="0 0 70.93823506446414 70.93823506446414" height="70.93823506446414" width="70.93823506446414"><g><svg></svg></g><g id="SvgjsG3139"><svg viewBox="0 0 70.93823506446414 70.93823506446414" height="70.93823506446414" width="70.93823506446414"><g><path d="M0 35.469c0-19.589 15.88-35.469 35.469-35.469 19.589 0 35.469 15.88 35.469 35.469 0 19.589-15.88 35.469-35.469 35.469-19.589 0-35.469-15.88-35.469-35.469zM35.469 68.064c18.002 0 32.595-14.593 32.595-32.595 0-18.002-14.593-32.595-32.595-32.595-18.002 0-32.595 14.593-32.595 32.595 0 18.002 14.593 32.595 32.595 32.595z" fill="black" stroke="transparent"></path></g><g transform="matrix(1,0,0,1,19.202275515586603,21.063097501855545)"><svg viewBox="0 0 32.53368403329093 28.812040060753052" height="28.812040060753052" width="32.53368403329093"><g><svg xmlns="http://www.w3.org/2000/svg" xmlns:xlink="http://www.w3.org/1999/xlink" version="1.1" x="0" y="0" viewBox="25.899860075925623 52.199999999999996 460.2501399240743 407.6004874176015" style="enable-background:new 0 0 512 512;" xml:space="preserve" height="28.812040060753052" width="32.53368403329093" class="icon-cg-0" data-fill-palette-color="accent" id="SvgjsSvg3138"><g fill="black"><path d="M376.8 262c2.9 16.3 17.1 28.2 33.7 28.2 18.9 0 34.3-15.3 34.3-34.2 0-18.9-15.3-34.3-34.2-34.3-16.6 0-30.8 11.9-33.7 28.2H135.4c-2.9-16.3-17.1-28.2-33.7-28.2-18.9 0-34.2 15.3-34.2 34.2 0 18.9 15.3 34.2 34.2 34.2 9.1 0 17.8-3.6 24.2-10h0c5-4.9 8.3-11.3 9.5-18.2H376.8z" fill="black"></path><path d="M476.1 325.7c-13.4-13.4-35.1-13.4-48.5 0 0 0 0 0 0 0h0c-5 5-8.3 11.4-9.5 18.3h-56.2c-12.6-0.1-22.8-10.4-22.8-23 0-19.2-15.5-34.9-34.8-35h-96.6c-19.2 0.1-34.8 15.8-34.8 35 0 12.6-10.2 22.9-22.8 23H94c-1.2-6.9-4.5-13.3-9.5-18.3-13.4-13.3-35-13.2-48.3 0.1-13.3 13.4-13.2 35 0.1 48.3 13.3 13.2 34.8 13.2 48.1 0 5-4.9 8.3-11.2 9.5-18.1h56.2c19.2-0.1 34.8-15.8 34.8-35 0-12.6 10.2-22.9 22.8-23h96.6c12.6 0.1 22.8 10.4 22.8 23 0 19.2 15.5 34.9 34.8 35h56.2c1.2 6.9 4.5 13.2 9.5 18.1 13.4 13.4 35.1 13.4 48.5 0C489.4 360.8 489.5 339.1 476.1 325.7z" fill="black"></path><path d="M391.6 391.3c-9.1 0-17.9 3.6-24.3 10.1-5.8 5.8-9.3 13.5-9.9 21.6h-8.1c-12.7-0.1-23.9-8-28.3-19.9l-18.7-50.5c-6.2-16.5-21.9-27.5-39.6-27.6h-13c-17.6 0-33.4 11-39.6 27.5l-18.7 50.6c-4.4 11.9-15.7 19.8-28.3 19.9h-8.1c-1.5-18.7-17.9-32.6-36.6-31.1-18.7 1.5-32.6 17.9-31.1 36.6s17.9 32.6 36.6 31.1c8-0.6 15.5-4.1 21.2-9.8 4.1-4.2 7.1-9.3 8.7-14.8h9.2c17.7-0.1 33.4-11.1 39.6-27.7l18.7-50.5c4.4-11.8 15.7-19.7 28.3-19.7h13c12.6 0 23.9 7.8 28.3 19.7l18.7 50.6c6.2 16.6 21.9 27.6 39.6 27.7h9.2c1.8 5.5 4.7 10.6 8.6 14.8v-0.1c7 6.5 15.1 10 24.3 10 18.9 0.1 34.3-15.2 34.3-34.1C425.7 406.7 410.5 391.4 391.6 391.3z" fill="black"></path><path d="M84.4 186.4c0 0 0.1-0.1 0.1-0.1 5-5 8.3-11.4 9.5-18.3h56.2c12.6 0.1 22.8 10.4 22.8 23 0 19.2 15.5 34.9 34.8 35h96.6c19.2-0.1 34.8-15.8 34.8-35 0-12.6 10.2-22.9 22.8-23h56.2c1.2 6.9 4.5 13.3 9.5 18.3 13.4 13.4 35.1 13.4 48.4 0 13.4-13.4 13.4-35.1 0-48.4-13.4-13.4-35-13.4-48.4 0l0 0c-5 4.9-8.3 11.2-9.5 18.1h-56.2c-19.2 0.1-34.8 15.8-34.8 35 0 12.6-10.2 22.9-22.8 23h-96.6c-12.6-0.1-22.8-10.4-22.8-23 0-19.2-15.5-34.9-34.8-35H94c-1.2-6.9-4.5-13.2-9.5-18.1-13.4-13.4-35.1-13.5-48.5-0.1-13.4 13.4-13.5 35.1-0.1 48.5C49.3 199.7 71 199.8 84.4 186.4z" fill="black"></path><path d="M144.9 110.6c5.8-5.8 9.3-13.4 9.9-21.6h8.1c12.7 0.1 23.9 8 28.3 19.9l18.7 50.5c6.2 16.5 21.9 27.5 39.6 27.6h13c17.6 0 33.4-11 39.6-27.5l18.7-50.6c4.4-11.9 15.7-19.8 28.3-19.9h8.1c1.5 18.7 17.9 32.6 36.6 31.1s32.6-17.9 31.1-36.6-17.9-32.6-36.6-31.1c-8 0.6-15.5 4.1-21.2 9.8-4.1 4.2-7.1 9.3-8.7 14.8h-9.2c-17.7 0.1-33.4 11.1-39.6 27.7l-18.7 50.5c-4.4 11.8-15.7 19.7-28.3 19.7h-13c-12.6 0-23.9-7.8-28.3-19.7l-18.7-50.6c-6.2-16.6-21.9-27.6-39.6-27.7h-9.2c-1.8-5.5-4.7-10.6-8.6-14.8v0.1c-7-6.5-15.1-10-24.3-10-9.1 0-17.9 3.6-24.3 10.1-13.3 13.4-13.3 35 0.1 48.4C110 124 131.6 124 144.9 110.6z" fill="black"></path></g></svg></g></svg></g></svg></g></svg></g><g></g></svg></g><defs><mask></mask></defs></svg><rect width="395.52" height="117.86047192115706" fill="black" stroke="none" visibility="hidden"></rect></g></mask><linearGradient x1="0" x2="1" y1="0.5" y2="0.5" id="f8d25b7a-f099-46dd-8aa4-e64c7ee9dade"><stop stop-color="#fff72e" offset="0"></stop><stop stop-color="#deae29" offset="1"></stop></linearGradient><rect width="395.52" height="117.86047192115706" fill="url(#f8d25b7a-f099-46dd-8aa4-e64c7ee9dade)" mask="url(#037d5777-3308-47e5-b81d-ce892e467895)" data-fill-palette-color="primary"></rect><mask id="899fd3f8-552e-4163-a512-2a4e6e406d68"><g id="SvgjsG3166"><svg viewBox="0 0 395.52 117.86047192115706" height="117.86047192115706" width="395.52"><g><svg viewBox="0 0 395.52 117.86047192115706" height="117.86047192115706" width="395.52"><g transform="matrix(1,0,0,1,0,85.98724357470036)"><svg viewBox="0 0 395.52 31.873228346456692" height="31.873228346456692" width="395.52"><g id="SvgjsG3165"><svg viewBox="0 0 395.52 31.873228346456692" height="31.873228346456692" width="395.52" id="SvgjsSvg3164"><g><svg viewBox="0 0 395.52 31.873228346456692" height="31.873228346456692" width="395.52"><g transform="matrix(1,0,0,1,0,0)"><svg width="395.52" viewBox="-8.3 -32 406.37 32.75" height="31.873228346456692" data-palette-color="url(#f8d25b7a-f099-46dd-8aa4-e64c7ee9dade)"></svg></g></svg></g></svg></g></svg></g><g transform="matrix(1,0,0,1,162.29088246776791,0)"><svg viewBox="0 0 70.93823506446414 70.93823506446414" height="70.93823506446414" width="70.93823506446414"><g><svg></svg></g><g id="SvgjsG3163"><svg viewBox="0 0 70.93823506446414 70.93823506446414" height="70.93823506446414" width="70.93823506446414"><g><path d="M0 35.469c0-19.589 15.88-35.469 35.469-35.469 19.589 0 35.469 15.88 35.469 35.469 0 19.589-15.88 35.469-35.469 35.469-19.589 0-35.469-15.88-35.469-35.469zM35.469 68.064c18.002 0 32.595-14.593 32.595-32.595 0-18.002-14.593-32.595-32.595-32.595-18.002 0-32.595 14.593-32.595 32.595 0 18.002 14.593 32.595 32.595 32.595z" fill="black" stroke="transparent"></path></g><g transform="matrix(1,0,0,1,19.202275515586603,21.063097501855545)"><svg viewBox="0 0 32.53368403329093 28.812040060753052" height="28.812040060753052" width="32.53368403329093"><g><svg xmlns="http://www.w3.org/2000/svg" xmlns:xlink="http://www.w3.org/1999/xlink" version="1.1" x="0" y="0" viewBox="25.899860075925623 52.199999999999996 460.2501399240743 407.6004874176015" style="enable-background:new 0 0 512 512;" xml:space="preserve" height="28.812040060753052" width="32.53368403329093" class="icon-cg-0" data-fill-palette-color="accent" id="SvgjsSvg3162"><g fill="white"><path d="M376.8 262c2.9 16.3 17.1 28.2 33.7 28.2 18.9 0 34.3-15.3 34.3-34.2 0-18.9-15.3-34.3-34.2-34.3-16.6 0-30.8 11.9-33.7 28.2H135.4c-2.9-16.3-17.1-28.2-33.7-28.2-18.9 0-34.2 15.3-34.2 34.2 0 18.9 15.3 34.2 34.2 34.2 9.1 0 17.8-3.6 24.2-10h0c5-4.9 8.3-11.3 9.5-18.2H376.8z" fill="white"></path><path d="M476.1 325.7c-13.4-13.4-35.1-13.4-48.5 0 0 0 0 0 0 0h0c-5 5-8.3 11.4-9.5 18.3h-56.2c-12.6-0.1-22.8-10.4-22.8-23 0-19.2-15.5-34.9-34.8-35h-96.6c-19.2 0.1-34.8 15.8-34.8 35 0 12.6-10.2 22.9-22.8 23H94c-1.2-6.9-4.5-13.3-9.5-18.3-13.4-13.3-35-13.2-48.3 0.1-13.3 13.4-13.2 35 0.1 48.3 13.3 13.2 34.8 13.2 48.1 0 5-4.9 8.3-11.2 9.5-18.1h56.2c19.2-0.1 34.8-15.8 34.8-35 0-12.6 10.2-22.9 22.8-23h96.6c12.6 0.1 22.8 10.4 22.8 23 0 19.2 15.5 34.9 34.8 35h56.2c1.2 6.9 4.5 13.2 9.5 18.1 13.4 13.4 35.1 13.4 48.5 0C489.4 360.8 489.5 339.1 476.1 325.7z" fill="white"></path><path d="M391.6 391.3c-9.1 0-17.9 3.6-24.3 10.1-5.8 5.8-9.3 13.5-9.9 21.6h-8.1c-12.7-0.1-23.9-8-28.3-19.9l-18.7-50.5c-6.2-16.5-21.9-27.5-39.6-27.6h-13c-17.6 0-33.4 11-39.6 27.5l-18.7 50.6c-4.4 11.9-15.7 19.8-28.3 19.9h-8.1c-1.5-18.7-17.9-32.6-36.6-31.1-18.7 1.5-32.6 17.9-31.1 36.6s17.9 32.6 36.6 31.1c8-0.6 15.5-4.1 21.2-9.8 4.1-4.2 7.1-9.3 8.7-14.8h9.2c17.7-0.1 33.4-11.1 39.6-27.7l18.7-50.5c4.4-11.8 15.7-19.7 28.3-19.7h13c12.6 0 23.9 7.8 28.3 19.7l18.7 50.6c6.2 16.6 21.9 27.6 39.6 27.7h9.2c1.8 5.5 4.7 10.6 8.6 14.8v-0.1c7 6.5 15.1 10 24.3 10 18.9 0.1 34.3-15.2 34.3-34.1C425.7 406.7 410.5 391.4 391.6 391.3z" fill="white"></path><path d="M84.4 186.4c0 0 0.1-0.1 0.1-0.1 5-5 8.3-11.4 9.5-18.3h56.2c12.6 0.1 22.8 10.4 22.8 23 0 19.2 15.5 34.9 34.8 35h96.6c19.2-0.1 34.8-15.8 34.8-35 0-12.6 10.2-22.9 22.8-23h56.2c1.2 6.9 4.5 13.3 9.5 18.3 13.4 13.4 35.1 13.4 48.4 0 13.4-13.4 13.4-35.1 0-48.4-13.4-13.4-35-13.4-48.4 0l0 0c-5 4.9-8.3 11.2-9.5 18.1h-56.2c-19.2 0.1-34.8 15.8-34.8 35 0 12.6-10.2 22.9-22.8 23h-96.6c-12.6-0.1-22.8-10.4-22.8-23 0-19.2-15.5-34.9-34.8-35H94c-1.2-6.9-4.5-13.2-9.5-18.1-13.4-13.4-35.1-13.5-48.5-0.1-13.4 13.4-13.5 35.1-0.1 48.5C49.3 199.7 71 199.8 84.4 186.4z" fill="white"></path><path d="M144.9 110.6c5.8-5.8 9.3-13.4 9.9-21.6h8.1c12.7 0.1 23.9 8 28.3 19.9l18.7 50.5c6.2 16.5 21.9 27.5 39.6 27.6h13c17.6 0 33.4-11 39.6-27.5l18.7-50.6c4.4-11.9 15.7-19.8 28.3-19.9h8.1c1.5 18.7 17.9 32.6 36.6 31.1s32.6-17.9 31.1-36.6-17.9-32.6-36.6-31.1c-8 0.6-15.5 4.1-21.2 9.8-4.1 4.2-7.1 9.3-8.7 14.8h-9.2c-17.7 0.1-33.4 11.1-39.6 27.7l-18.7 50.5c-4.4 11.8-15.7 19.7-28.3 19.7h-13c-12.6 0-23.9-7.8-28.3-19.7l-18.7-50.6c-6.2-16.6-21.9-27.6-39.6-27.7h-9.2c-1.8-5.5-4.7-10.6-8.6-14.8v0.1c-7-6.5-15.1-10-24.3-10-9.1 0-17.9 3.6-24.3 10.1-13.3 13.4-13.3 35 0.1 48.4C110 124 131.6 124 144.9 110.6z" fill="white"></path></g></svg></g></svg></g></svg></g></svg></g><g></g></svg></g><defs><mask></mask></defs><mask><g id="SvgjsG3161"><svg viewBox="0 0 395.52 117.86047192115706" height="117.86047192115706" width="395.52"><g><svg viewBox="0 0 395.52 117.86047192115706" height="117.86047192115706" width="395.52"><g transform="matrix(1,0,0,1,0,85.98724357470036)"><svg viewBox="0 0 395.52 31.873228346456692" height="31.873228346456692" width="395.52"><g id="SvgjsG3160"><svg viewBox="0 0 395.52 31.873228346456692" height="31.873228346456692" width="395.52" id="SvgjsSvg3159"><g><svg viewBox="0 0 395.52 31.873228346456692" height="31.873228346456692" width="395.52"><g transform="matrix(1,0,0,1,0,0)"><svg width="395.52" viewBox="-8.3 -32 406.37 32.75" height="31.873228346456692" data-palette-color="url(#f8d25b7a-f099-46dd-8aa4-e64c7ee9dade)"><path d="M21.9 0.75L21.9 0.75Q18.95 0.75 16.13 0.43 13.3 0.1 10.65-0.55L10.65-0.55 13.45-8.8Q15.35-8.3 17.55-7.98 19.75-7.65 21.7-7.65L21.7-7.65Q23.3-7.65 24.5-7.73 25.7-7.8 26.8-7.95L26.8-7.95 27.2-10.45 23.05-10.85Q18.15-11.35 16.25-13.08 14.35-14.8 14.35-17.8L14.35-17.8Q14.35-19.15 14.65-20.8L14.65-20.8Q15.45-25.05 16.98-27.5 18.5-29.95 21.35-30.98 24.2-32 28.9-32L28.9-32Q31.65-32 34.3-31.7 36.95-31.4 39.4-30.75L39.4-30.75 36.8-22.75Q34.85-23.1 33.1-23.3 31.35-23.5 29.2-23.5L29.2-23.5Q28.05-23.5 27.25-23.45 26.45-23.4 25.3-23.25L25.3-23.25 24.9-20.8 28.25-20.45Q31.85-20.1 33.9-19.07 35.95-18.05 36.8-16.53 37.65-15 37.65-13L37.65-13Q37.65-12.4 37.58-11.78 37.5-11.15 37.4-10.45L37.4-10.45Q36.7-6.4 35.15-4.1 33.6-1.8 31.5-0.78 29.4 0.25 26.93 0.5 24.45 0.75 21.9 0.75ZM16.15-29.2L16.15-29.2-3.15-31.25 18.35-31.25Q17.7-30.85 17.18-30.33 16.65-29.8 16.15-29.2ZM14.6-26.45L13.85-24.25-6.9-26.45 14.6-26.45ZM12.9-19.4L12.9-19.4-8.3-21.65 13.25-21.65Q13.2-21.5 13.18-21.35 13.15-21.2 13.15-21.05L13.15-21.05Q13.1-20.7 13.03-20.3 12.95-19.9 12.9-19.4ZM13.3-14.6L13.3-14.6-7.85-16.85 12.9-16.85Q12.95-16.2 13.03-15.68 13.1-15.15 13.3-14.6ZM19.9-9.8L19.9-9.8-6.55-12.05 15-12.05Q16.65-10.45 19.9-9.8ZM11.3-7.25L10.55-5.05-7.4-7.25 11.3-7.25ZM9.7-2.4L8.95-0.2-8.25-2.4 9.7-2.4ZM60.5 0.6L60.5 0.6Q55.05 0.6 52.87-1.53 50.7-3.65 50.7-7.9L50.7-7.9Q50.7-9.05 50.85-10.4 51-11.75 51.25-13.2L51.25-13.2Q52.05-17.8 53.6-20.85 55.15-23.9 57.95-25.43 60.75-26.95 65.35-26.95L65.35-26.95Q70.85-26.95 73.1-24.83 75.35-22.7 75.35-18.4L75.35-18.4Q75.35-17.3 75.2-15.98 75.05-14.65 74.8-13.2L74.8-13.2Q74-8.65 72.45-5.58 70.9-2.5 68.05-0.95 65.2 0.6 60.5 0.6ZM54.5-24.8L54.5-24.8 39.15-26.45 56.55-26.45Q55.35-25.75 54.5-24.8ZM51.35-19.65L51.35-19.65 32.45-21.65 52.2-21.65Q52-21.15 51.77-20.68 51.55-20.2 51.35-19.65ZM60.85-17.5L59-7 61.95-7Q63.25-7 64.07-7.3 64.9-7.6 65.1-8.9L65.1-8.9 67-19.35 63.95-19.35Q62.75-19.35 61.9-19.05 61.05-18.75 60.85-17.5L60.85-17.5ZM50.45-16.85L50-14.75 30.45-16.85 50.45-16.85ZM49.25-9.95L49.25-9.95 29.55-12.05 49.5-12.05Q49.45-11.5 49.37-10.98 49.3-10.45 49.25-9.95ZM49.4-5.15L49.4-5.15 29.75-7.25 49.2-7.25Q49.2-6.7 49.27-6.18 49.35-5.65 49.4-5.15ZM51.55-0.55L51.55-0.55 34.1-2.4 50.25-2.4Q50.5-1.9 50.82-1.43 51.15-0.95 51.55-0.55ZM96.45 0L88.05 0 92.65-26.45 109.3-26.45 107-18.95 99.75-18.95 99.15-15.55 105.75-15.55 104.75-9.6 98.15-9.6 96.45 0ZM91.05-26.45L90.7-24.2 69.5-26.45 91.05-26.45ZM90.25-21.65L89.85-19.4 68.65-21.65 90.25-21.65ZM89.4-16.85L89-14.6 67.8-16.85 89.4-16.85ZM88.55-12.05L88.15-9.8 66.95-12.05 88.55-12.05ZM87.7-7.25L87.3-5 66.1-7.25 87.7-7.25ZM86.85-2.4L86.45-0.15 65.25-2.4 86.85-2.4ZM130.04 0L121.24 0 124.54-18.95 118.99-18.95 120.34-26.45 140.09-26.45 138.74-18.95 133.34-18.95 130.04 0ZM118.69-26.45L118.34-24.2 97.14-26.45 118.69-26.45ZM117.89-21.65L117.49-19.4 96.29-21.65 117.89-21.65ZM122.69-16.85L122.29-14.6 101.09-16.85 122.69-16.85ZM121.84-12.05L121.44-9.8 100.24-12.05 121.84-12.05ZM120.99-7.25L120.59-5 99.39-7.25 120.99-7.25ZM120.14-2.4L119.74-0.15 98.54-2.4 120.14-2.4ZM166.39 0L148.74 0 153.34-26.45 170.94-26.45 168.59-18.95 160.44-18.95 159.84-15.55 167.34-15.55 166.49-10.75 159.04-10.75 158.44-7.35 167.69-7.35 166.39 0ZM151.69-26.45L151.34-24.2 130.14-26.45 151.69-26.45ZM150.89-21.65L150.49-19.4 129.29-21.65 150.89-21.65ZM150.04-16.85L149.64-14.6 128.44-16.85 150.04-16.85ZM149.19-12.05L148.79-9.8 127.59-12.05 149.19-12.05ZM148.34-7.25L147.94-5 126.74-7.25 148.34-7.25ZM147.49-2.4L147.09-0.15 125.89-2.4 147.49-2.4ZM191.34 0.6L191.34 0.6Q185.84 0.6 183.64-1.5 181.44-3.6 181.44-7.8L181.44-7.8Q181.44-8.95 181.61-10.33 181.79-11.7 182.04-13.2L182.04-13.2Q182.84-17.8 184.34-20.85 185.84-23.9 188.66-25.43 191.49-26.95 196.19-26.95L196.19-26.95Q197.14-26.95 198.46-26.85 199.79-26.75 200.99-26.5 202.19-26.25 202.84-25.85L202.84-25.85 200.29-18.9Q198.94-19.3 197.61-19.45 196.29-19.6 195.54-19.6L195.54-19.6Q193.79-19.6 192.91-19.28 192.04-18.95 191.84-17.9L191.84-17.9 189.89-7.2Q190.69-7 191.34-6.98 191.99-6.95 192.64-6.95L192.64-6.95Q194.24-6.95 195.96-7.25 197.69-7.55 199.09-8.05L199.09-8.05 198.29-0.55Q196.74 0.1 195.06 0.35 193.39 0.6 191.34 0.6ZM185.29-24.8L185.29-24.8 169.94-26.45 187.34-26.45Q186.14-25.75 185.29-24.8ZM182.14-19.65L182.14-19.65 163.24-21.65 182.99-21.65Q182.79-21.15 182.56-20.68 182.34-20.2 182.14-19.65ZM181.24-16.85L180.79-14.75 161.24-16.85 181.24-16.85ZM180.04-9.95L180.04-9.95 160.34-12.05 180.29-12.05Q180.24-11.5 180.16-10.98 180.09-10.45 180.04-9.95ZM180.19-5.15L180.19-5.15 160.54-7.25 179.99-7.25Q179.99-6.7 180.06-6.18 180.14-5.65 180.19-5.15ZM182.34-0.55L182.34-0.55 164.89-2.4 181.04-2.4Q181.29-1.9 181.61-1.43 181.94-0.95 182.34-0.55ZM220.94 0L212.54 0 217.14-26.45 225.59-26.45 223.94-17.3 229.59-17.3 231.19-26.45 239.64-26.45 234.99 0 226.59 0 228.14-9.15 222.54-9.15 220.94 0ZM215.49-26.45L215.14-24.2 193.94-26.45 215.49-26.45ZM214.69-21.65L214.29-19.4 193.09-21.65 214.69-21.65ZM213.84-16.85L213.44-14.6 192.24-16.85 213.84-16.85ZM212.99-12.05L212.59-9.8 191.39-12.05 212.99-12.05ZM212.14-7.25L211.74-5 190.54-7.25 212.14-7.25ZM211.29-2.4L210.89-0.15 189.69-2.4 211.29-2.4ZM272.98 0.75L272.98 0.75Q266.48 0.75 263.86-1.78 261.23-4.3 261.23-9.25L261.23-9.25Q261.23-10.65 261.43-12.23 261.63-13.8 261.93-15.6L261.93-15.6Q262.63-19.65 263.81-22.73 264.98-25.8 266.98-27.88 268.98-29.95 272.11-30.98 275.23-32 279.83-32L279.83-32Q281.08-32 282.83-31.8 284.58-31.6 286.23-31.33 287.88-31.05 288.78-30.7L288.78-30.7 286.03-23.05Q284.23-23.4 282.28-23.58 280.33-23.75 279.03-23.75L279.03-23.75Q276.23-23.75 274.78-23.3 273.33-22.85 273.08-21.25L273.08-21.25 270.63-7.1 273.78-7.1Q275.23-7.1 276.18-7.43 277.13-7.75 277.38-9.2L277.38-9.2 277.63-10.55 275.23-10.55 276.58-18.2 288.03-18.2 285.08-1.5Q281.93-0.35 278.71 0.2 275.48 0.75 272.98 0.75ZM266.43-29.6L266.43-29.6 251.13-31.25 268.68-31.25Q268.08-30.9 267.53-30.5 266.98-30.1 266.43-29.6ZM262.93-24.45L262.93-24.45 244.23-26.45 263.93-26.45Q263.68-25.95 263.43-25.48 263.18-25 262.93-24.45ZM261.88-21.65L261.28-19.6 241.88-21.65 261.88-21.65ZM260.33-14.75L260.33-14.75 240.68-16.85 260.68-16.85 260.53-15.85Q260.48-15.55 260.43-15.28 260.38-15 260.33-14.75ZM259.83-9.95L259.83-9.95 240.13-12.05 259.98-12.05Q259.83-10.95 259.83-9.95ZM260.23-5.15L260.23-5.15 240.78-7.25 259.88-7.25Q259.98-6.7 260.06-6.18 260.13-5.65 260.23-5.15ZM262.88-0.55L262.88-0.55 245.58-2.4 261.38-2.4Q262.03-1.25 262.88-0.55ZM310.08 0.6L310.08 0.6Q304.93 0.6 302.88-0.93 300.83-2.45 300.83-6.25L300.83-6.25Q300.83-7.4 300.98-8.7 301.13-10 301.38-11.55L301.38-11.55 304.03-26.45 312.43-26.45 309.03-7 311.53-7Q312.78-7 313.35-7.3 313.93-7.6 314.13-8.9L314.13-8.9 317.28-26.45 325.68-26.45 323.08-11.55Q322.28-7 320.93-4.33 319.58-1.65 317.03-0.53 314.48 0.6 310.08 0.6ZM302.43-26.45L302.08-24.2 280.88-26.45 302.43-26.45ZM301.63-21.65L301.23-19.4 280.03-21.65 301.63-21.65ZM300.78-16.85L300.38-14.6 279.18-16.85 300.78-16.85ZM299.93-12.05L299.53-9.8 278.33-12.05 299.93-12.05ZM299.38-5L299.38-5 278.18-7.25 299.33-7.25 299.33-6.25Q299.33-5.9 299.33-5.6 299.33-5.3 299.38-5ZM301.28-0.15L301.28-0.15 280.08-2.4 299.83-2.4Q300.38-1 301.28-0.15ZM344.23 0L335.83 0 340.43-26.45 353.13-26.45Q355.93-26.45 357.5-25.6 359.08-24.75 359.75-23.25 360.43-21.75 360.43-19.85L360.43-19.85Q360.43-18.35 360-16.2 359.58-14.05 358.45-12.03 357.33-10 355.18-8.8L355.18-8.8 358.03 0 348.68 0 346.78-7.7 345.58-7.7 344.23 0ZM338.78-26.45L338.43-24.2 317.23-26.45 338.78-26.45ZM337.98-21.65L337.58-19.4 316.38-21.65 337.98-21.65ZM347.58-19.15L346.78-14.55 348.38-14.55Q349.38-14.55 350.1-14.83 350.83-15.1 350.98-16.05L350.98-16.05 351.28-17.8Q351.28-17.9 351.3-17.98 351.33-18.05 351.33-18.1L351.33-18.1Q351.33-18.8 350.6-18.98 349.88-19.15 348.68-19.15L348.68-19.15 347.58-19.15ZM337.13-16.85L336.73-14.6 315.53-16.85 337.13-16.85ZM336.28-12.05L335.88-9.8 314.68-12.05 336.28-12.05ZM335.43-7.25L335.03-5 313.83-7.25 335.43-7.25ZM334.58-2.4L334.18-0.15 312.98-2.4 334.58-2.4ZM382.47 0.6L382.47 0.6Q377.32 0.6 375.27-0.93 373.22-2.45 373.22-6.25L373.22-6.25Q373.22-7.4 373.37-8.7 373.52-10 373.77-11.55L373.77-11.55 376.42-26.45 384.82-26.45 381.42-7 383.92-7Q385.17-7 385.75-7.3 386.32-7.6 386.52-8.9L386.52-8.9 389.67-26.45 398.07-26.45 395.47-11.55Q394.67-7 393.32-4.33 391.97-1.65 389.42-0.53 386.87 0.6 382.47 0.6ZM374.82-26.45L374.47-24.2 353.27-26.45 374.82-26.45ZM374.02-21.65L373.62-19.4 352.42-21.65 374.02-21.65ZM373.17-16.85L372.77-14.6 351.57-16.85 373.17-16.85ZM372.32-12.05L371.92-9.8 350.72-12.05 372.32-12.05ZM371.77-5L371.77-5 350.57-7.25 371.72-7.25 371.72-6.25Q371.72-5.9 371.72-5.6 371.72-5.3 371.77-5ZM373.67-0.15L373.67-0.15 352.47-2.4 372.22-2.4Q372.77-1 373.67-0.15Z" opacity="1" transform="matrix(1,0,0,1,0,0)" fill="black" class="wordmark-text-0" id="SvgjsPath3158"></path></svg></g></svg></g></svg></g></svg></g><g transform="matrix(1,0,0,1,162.29088246776791,0)"><svg viewBox="0 0 70.93823506446414 70.93823506446414" height="70.93823506446414" width="70.93823506446414"><g><svg></svg></g><g id="SvgjsG3157"><svg viewBox="0 0 70.93823506446414 70.93823506446414" height="70.93823506446414" width="70.93823506446414"><g><path d="M0 35.469c0-19.589 15.88-35.469 35.469-35.469 19.589 0 35.469 15.88 35.469 35.469 0 19.589-15.88 35.469-35.469 35.469-19.589 0-35.469-15.88-35.469-35.469zM35.469 68.064c18.002 0 32.595-14.593 32.595-32.595 0-18.002-14.593-32.595-32.595-32.595-18.002 0-32.595 14.593-32.595 32.595 0 18.002 14.593 32.595 32.595 32.595z" fill="black" stroke="transparent"></path></g><g transform="matrix(1,0,0,1,19.202275515586603,21.063097501855545)"><svg viewBox="0 0 32.53368403329093 28.812040060753052" height="28.812040060753052" width="32.53368403329093"><g><svg xmlns="http://www.w3.org/2000/svg" xmlns:xlink="http://www.w3.org/1999/xlink" version="1.1" x="0" y="0" viewBox="25.899860075925623 52.199999999999996 460.2501399240743 407.6004874176015" style="enable-background:new 0 0 512 512;" xml:space="preserve" height="28.812040060753052" width="32.53368403329093" class="icon-cg-0" data-fill-palette-color="accent" id="SvgjsSvg3156"><g fill="black"><path d="M376.8 262c2.9 16.3 17.1 28.2 33.7 28.2 18.9 0 34.3-15.3 34.3-34.2 0-18.9-15.3-34.3-34.2-34.3-16.6 0-30.8 11.9-33.7 28.2H135.4c-2.9-16.3-17.1-28.2-33.7-28.2-18.9 0-34.2 15.3-34.2 34.2 0 18.9 15.3 34.2 34.2 34.2 9.1 0 17.8-3.6 24.2-10h0c5-4.9 8.3-11.3 9.5-18.2H376.8z" fill="black"></path><path d="M476.1 325.7c-13.4-13.4-35.1-13.4-48.5 0 0 0 0 0 0 0h0c-5 5-8.3 11.4-9.5 18.3h-56.2c-12.6-0.1-22.8-10.4-22.8-23 0-19.2-15.5-34.9-34.8-35h-96.6c-19.2 0.1-34.8 15.8-34.8 35 0 12.6-10.2 22.9-22.8 23H94c-1.2-6.9-4.5-13.3-9.5-18.3-13.4-13.3-35-13.2-48.3 0.1-13.3 13.4-13.2 35 0.1 48.3 13.3 13.2 34.8 13.2 48.1 0 5-4.9 8.3-11.2 9.5-18.1h56.2c19.2-0.1 34.8-15.8 34.8-35 0-12.6 10.2-22.9 22.8-23h96.6c12.6 0.1 22.8 10.4 22.8 23 0 19.2 15.5 34.9 34.8 35h56.2c1.2 6.9 4.5 13.2 9.5 18.1 13.4 13.4 35.1 13.4 48.5 0C489.4 360.8 489.5 339.1 476.1 325.7z" fill="black"></path><path d="M391.6 391.3c-9.1 0-17.9 3.6-24.3 10.1-5.8 5.8-9.3 13.5-9.9 21.6h-8.1c-12.7-0.1-23.9-8-28.3-19.9l-18.7-50.5c-6.2-16.5-21.9-27.5-39.6-27.6h-13c-17.6 0-33.4 11-39.6 27.5l-18.7 50.6c-4.4 11.9-15.7 19.8-28.3 19.9h-8.1c-1.5-18.7-17.9-32.6-36.6-31.1-18.7 1.5-32.6 17.9-31.1 36.6s17.9 32.6 36.6 31.1c8-0.6 15.5-4.1 21.2-9.8 4.1-4.2 7.1-9.3 8.7-14.8h9.2c17.7-0.1 33.4-11.1 39.6-27.7l18.7-50.5c4.4-11.8 15.7-19.7 28.3-19.7h13c12.6 0 23.9 7.8 28.3 19.7l18.7 50.6c6.2 16.6 21.9 27.6 39.6 27.7h9.2c1.8 5.5 4.7 10.6 8.6 14.8v-0.1c7 6.5 15.1 10 24.3 10 18.9 0.1 34.3-15.2 34.3-34.1C425.7 406.7 410.5 391.4 391.6 391.3z" fill="black"></path><path d="M84.4 186.4c0 0 0.1-0.1 0.1-0.1 5-5 8.3-11.4 9.5-18.3h56.2c12.6 0.1 22.8 10.4 22.8 23 0 19.2 15.5 34.9 34.8 35h96.6c19.2-0.1 34.8-15.8 34.8-35 0-12.6 10.2-22.9 22.8-23h56.2c1.2 6.9 4.5 13.3 9.5 18.3 13.4 13.4 35.1 13.4 48.4 0 13.4-13.4 13.4-35.1 0-48.4-13.4-13.4-35-13.4-48.4 0l0 0c-5 4.9-8.3 11.2-9.5 18.1h-56.2c-19.2 0.1-34.8 15.8-34.8 35 0 12.6-10.2 22.9-22.8 23h-96.6c-12.6-0.1-22.8-10.4-22.8-23 0-19.2-15.5-34.9-34.8-35H94c-1.2-6.9-4.5-13.2-9.5-18.1-13.4-13.4-35.1-13.5-48.5-0.1-13.4 13.4-13.5 35.1-0.1 48.5C49.3 199.7 71 199.8 84.4 186.4z" fill="black"></path><path d="M144.9 110.6c5.8-5.8 9.3-13.4 9.9-21.6h8.1c12.7 0.1 23.9 8 28.3 19.9l18.7 50.5c6.2 16.5 21.9 27.5 39.6 27.6h13c17.6 0 33.4-11 39.6-27.5l18.7-50.6c4.4-11.9 15.7-19.8 28.3-19.9h8.1c1.5 18.7 17.9 32.6 36.6 31.1s32.6-17.9 31.1-36.6-17.9-32.6-36.6-31.1c-8 0.6-15.5 4.1-21.2 9.8-4.1 4.2-7.1 9.3-8.7 14.8h-9.2c-17.7 0.1-33.4 11.1-39.6 27.7l-18.7 50.5c-4.4 11.8-15.7 19.7-28.3 19.7h-13c-12.6 0-23.9-7.8-28.3-19.7l-18.7-50.6c-6.2-16.6-21.9-27.6-39.6-27.7h-9.2c-1.8-5.5-4.7-10.6-8.6-14.8v0.1c-7-6.5-15.1-10-24.3-10-9.1 0-17.9 3.6-24.3 10.1-13.3 13.4-13.3 35 0.1 48.4C110 124 131.6 124 144.9 110.6z" fill="black"></path></g></svg></g></svg></g></svg></g></svg></g><g></g></svg></g><defs><mask></mask></defs></svg><rect width="395.52" height="117.86047192115706" fill="black" stroke="none" visibility="hidden"></rect></g></mask></svg><rect width="395.52" height="117.86047192115706" fill="black" stroke="none" visibility="hidden"></rect></g></mask><linearGradient x1="0" x2="1" y1="0.5" y2="0.5" id="d17bdd06-5be5-4e98-b3a9-e01bda66774a"><stop stop-color="#fff72e" offset="0"></stop><stop stop-color="#deae29" offset="1"></stop></linearGradient><rect width="395.52" height="117.86047192115706" fill="url(#d17bdd06-5be5-4e98-b3a9-e01bda66774a)" mask="url(#899fd3f8-552e-4163-a512-2a4e6e406d68)" data-fill-palette-color="accent"></rect><mask id="b55d5324-07a3-4def-9753-375fc4e2c2d3"><g id="SvgjsG3188"><svg viewBox="0 0 395.52 117.86047192115706" height="117.86047192115706" width="395.52"><g><svg viewBox="0 0 395.52 117.86047192115706" height="117.86047192115706" width="395.52"><g transform="matrix(1,0,0,1,0,85.98724357470036)"><svg viewBox="0 0 395.52 31.873228346456692" height="31.873228346456692" width="395.52"><g id="SvgjsG3187"><svg viewBox="0 0 395.52 31.873228346456692" height="31.873228346456692" width="395.52" id="SvgjsSvg3186"><g><svg viewBox="0 0 395.52 31.873228346456692" height="31.873228346456692" width="395.52"><g transform="matrix(1,0,0,1,0,0)"><svg width="395.52" viewBox="-8.3 -32 406.37 32.75" height="31.873228346456692" data-palette-color="url(#f8d25b7a-f099-46dd-8aa4-e64c7ee9dade)"></svg></g></svg></g></svg></g></svg></g><g transform="matrix(1,0,0,1,162.29088246776791,0)"><svg viewBox="0 0 70.93823506446414 70.93823506446414" height="70.93823506446414" width="70.93823506446414"><g><svg></svg></g><g id="SvgjsG3185"><svg viewBox="0 0 70.93823506446414 70.93823506446414" height="70.93823506446414" width="70.93823506446414"><g><path d="M0 35.469c0-19.589 15.88-35.469 35.469-35.469 19.589 0 35.469 15.88 35.469 35.469 0 19.589-15.88 35.469-35.469 35.469-19.589 0-35.469-15.88-35.469-35.469zM35.469 68.064c18.002 0 32.595-14.593 32.595-32.595 0-18.002-14.593-32.595-32.595-32.595-18.002 0-32.595 14.593-32.595 32.595 0 18.002 14.593 32.595 32.595 32.595z" fill="white" stroke="transparent"></path></g><g transform="matrix(1,0,0,1,19.202275515586603,21.063097501855545)"><svg viewBox="0 0 32.53368403329093 28.812040060753052" height="28.812040060753052" width="32.53368403329093"><g><svg xmlns="http://www.w3.org/2000/svg" xmlns:xlink="http://www.w3.org/1999/xlink" version="1.1" x="0" y="0" viewBox="25.899860075925623 52.199999999999996 460.2501399240743 407.6004874176015" style="enable-background:new 0 0 512 512;" xml:space="preserve" height="28.812040060753052" width="32.53368403329093" class="icon-cg-0" data-fill-palette-color="accent" id="SvgjsSvg3184"></svg></g></svg></g></svg></g></svg></g><g></g></svg></g><defs><mask></mask></defs><mask><g id="SvgjsG3183"><svg viewBox="0 0 395.52 117.86047192115706" height="117.86047192115706" width="395.52"><g><svg viewBox="0 0 395.52 117.86047192115706" height="117.86047192115706" width="395.52"><g transform="matrix(1,0,0,1,0,85.98724357470036)"><svg viewBox="0 0 395.52 31.873228346456692" height="31.873228346456692" width="395.52"><g id="SvgjsG3182"><svg viewBox="0 0 395.52 31.873228346456692" height="31.873228346456692" width="395.52" id="SvgjsSvg3181"><g><svg viewBox="0 0 395.52 31.873228346456692" height="31.873228346456692" width="395.52"><g transform="matrix(1,0,0,1,0,0)"><svg width="395.52" viewBox="-8.3 -32 406.37 32.75" height="31.873228346456692" data-palette-color="url(#f8d25b7a-f099-46dd-8aa4-e64c7ee9dade)"><path d="M21.9 0.75L21.9 0.75Q18.95 0.75 16.13 0.43 13.3 0.1 10.65-0.55L10.65-0.55 13.45-8.8Q15.35-8.3 17.55-7.98 19.75-7.65 21.7-7.65L21.7-7.65Q23.3-7.65 24.5-7.73 25.7-7.8 26.8-7.95L26.8-7.95 27.2-10.45 23.05-10.85Q18.15-11.35 16.25-13.08 14.35-14.8 14.35-17.8L14.35-17.8Q14.35-19.15 14.65-20.8L14.65-20.8Q15.45-25.05 16.98-27.5 18.5-29.95 21.35-30.98 24.2-32 28.9-32L28.9-32Q31.65-32 34.3-31.7 36.95-31.4 39.4-30.75L39.4-30.75 36.8-22.75Q34.85-23.1 33.1-23.3 31.35-23.5 29.2-23.5L29.2-23.5Q28.05-23.5 27.25-23.45 26.45-23.4 25.3-23.25L25.3-23.25 24.9-20.8 28.25-20.45Q31.85-20.1 33.9-19.07 35.95-18.05 36.8-16.53 37.65-15 37.65-13L37.65-13Q37.65-12.4 37.58-11.78 37.5-11.15 37.4-10.45L37.4-10.45Q36.7-6.4 35.15-4.1 33.6-1.8 31.5-0.78 29.4 0.25 26.93 0.5 24.45 0.75 21.9 0.75ZM16.15-29.2L16.15-29.2-3.15-31.25 18.35-31.25Q17.7-30.85 17.18-30.33 16.65-29.8 16.15-29.2ZM14.6-26.45L13.85-24.25-6.9-26.45 14.6-26.45ZM12.9-19.4L12.9-19.4-8.3-21.65 13.25-21.65Q13.2-21.5 13.18-21.35 13.15-21.2 13.15-21.05L13.15-21.05Q13.1-20.7 13.03-20.3 12.95-19.9 12.9-19.4ZM13.3-14.6L13.3-14.6-7.85-16.85 12.9-16.85Q12.95-16.2 13.03-15.68 13.1-15.15 13.3-14.6ZM19.9-9.8L19.9-9.8-6.55-12.05 15-12.05Q16.65-10.45 19.9-9.8ZM11.3-7.25L10.55-5.05-7.4-7.25 11.3-7.25ZM9.7-2.4L8.95-0.2-8.25-2.4 9.7-2.4ZM60.5 0.6L60.5 0.6Q55.05 0.6 52.87-1.53 50.7-3.65 50.7-7.9L50.7-7.9Q50.7-9.05 50.85-10.4 51-11.75 51.25-13.2L51.25-13.2Q52.05-17.8 53.6-20.85 55.15-23.9 57.95-25.43 60.75-26.95 65.35-26.95L65.35-26.95Q70.85-26.95 73.1-24.83 75.35-22.7 75.35-18.4L75.35-18.4Q75.35-17.3 75.2-15.98 75.05-14.65 74.8-13.2L74.8-13.2Q74-8.65 72.45-5.58 70.9-2.5 68.05-0.95 65.2 0.6 60.5 0.6ZM54.5-24.8L54.5-24.8 39.15-26.45 56.55-26.45Q55.35-25.75 54.5-24.8ZM51.35-19.65L51.35-19.65 32.45-21.65 52.2-21.65Q52-21.15 51.77-20.68 51.55-20.2 51.35-19.65ZM60.85-17.5L59-7 61.95-7Q63.25-7 64.07-7.3 64.9-7.6 65.1-8.9L65.1-8.9 67-19.35 63.95-19.35Q62.75-19.35 61.9-19.05 61.05-18.75 60.85-17.5L60.85-17.5ZM50.45-16.85L50-14.75 30.45-16.85 50.45-16.85ZM49.25-9.95L49.25-9.95 29.55-12.05 49.5-12.05Q49.45-11.5 49.37-10.98 49.3-10.45 49.25-9.95ZM49.4-5.15L49.4-5.15 29.75-7.25 49.2-7.25Q49.2-6.7 49.27-6.18 49.35-5.65 49.4-5.15ZM51.55-0.55L51.55-0.55 34.1-2.4 50.25-2.4Q50.5-1.9 50.82-1.43 51.15-0.95 51.55-0.55ZM96.45 0L88.05 0 92.65-26.45 109.3-26.45 107-18.95 99.75-18.95 99.15-15.55 105.75-15.55 104.75-9.6 98.15-9.6 96.45 0ZM91.05-26.45L90.7-24.2 69.5-26.45 91.05-26.45ZM90.25-21.65L89.85-19.4 68.65-21.65 90.25-21.65ZM89.4-16.85L89-14.6 67.8-16.85 89.4-16.85ZM88.55-12.05L88.15-9.8 66.95-12.05 88.55-12.05ZM87.7-7.25L87.3-5 66.1-7.25 87.7-7.25ZM86.85-2.4L86.45-0.15 65.25-2.4 86.85-2.4ZM130.04 0L121.24 0 124.54-18.95 118.99-18.95 120.34-26.45 140.09-26.45 138.74-18.95 133.34-18.95 130.04 0ZM118.69-26.45L118.34-24.2 97.14-26.45 118.69-26.45ZM117.89-21.65L117.49-19.4 96.29-21.65 117.89-21.65ZM122.69-16.85L122.29-14.6 101.09-16.85 122.69-16.85ZM121.84-12.05L121.44-9.8 100.24-12.05 121.84-12.05ZM120.99-7.25L120.59-5 99.39-7.25 120.99-7.25ZM120.14-2.4L119.74-0.15 98.54-2.4 120.14-2.4ZM166.39 0L148.74 0 153.34-26.45 170.94-26.45 168.59-18.95 160.44-18.95 159.84-15.55 167.34-15.55 166.49-10.75 159.04-10.75 158.44-7.35 167.69-7.35 166.39 0ZM151.69-26.45L151.34-24.2 130.14-26.45 151.69-26.45ZM150.89-21.65L150.49-19.4 129.29-21.65 150.89-21.65ZM150.04-16.85L149.64-14.6 128.44-16.85 150.04-16.85ZM149.19-12.05L148.79-9.8 127.59-12.05 149.19-12.05ZM148.34-7.25L147.94-5 126.74-7.25 148.34-7.25ZM147.49-2.4L147.09-0.15 125.89-2.4 147.49-2.4ZM191.34 0.6L191.34 0.6Q185.84 0.6 183.64-1.5 181.44-3.6 181.44-7.8L181.44-7.8Q181.44-8.95 181.61-10.33 181.79-11.7 182.04-13.2L182.04-13.2Q182.84-17.8 184.34-20.85 185.84-23.9 188.66-25.43 191.49-26.95 196.19-26.95L196.19-26.95Q197.14-26.95 198.46-26.85 199.79-26.75 200.99-26.5 202.19-26.25 202.84-25.85L202.84-25.85 200.29-18.9Q198.94-19.3 197.61-19.45 196.29-19.6 195.54-19.6L195.54-19.6Q193.79-19.6 192.91-19.28 192.04-18.95 191.84-17.9L191.84-17.9 189.89-7.2Q190.69-7 191.34-6.98 191.99-6.95 192.64-6.95L192.64-6.95Q194.24-6.95 195.96-7.25 197.69-7.55 199.09-8.05L199.09-8.05 198.29-0.55Q196.74 0.1 195.06 0.35 193.39 0.6 191.34 0.6ZM185.29-24.8L185.29-24.8 169.94-26.45 187.34-26.45Q186.14-25.75 185.29-24.8ZM182.14-19.65L182.14-19.65 163.24-21.65 182.99-21.65Q182.79-21.15 182.56-20.68 182.34-20.2 182.14-19.65ZM181.24-16.85L180.79-14.75 161.24-16.85 181.24-16.85ZM180.04-9.95L180.04-9.95 160.34-12.05 180.29-12.05Q180.24-11.5 180.16-10.98 180.09-10.45 180.04-9.95ZM180.19-5.15L180.19-5.15 160.54-7.25 179.99-7.25Q179.99-6.7 180.06-6.18 180.14-5.65 180.19-5.15ZM182.34-0.55L182.34-0.55 164.89-2.4 181.04-2.4Q181.29-1.9 181.61-1.43 181.94-0.95 182.34-0.55ZM220.94 0L212.54 0 217.14-26.45 225.59-26.45 223.94-17.3 229.59-17.3 231.19-26.45 239.64-26.45 234.99 0 226.59 0 228.14-9.15 222.54-9.15 220.94 0ZM215.49-26.45L215.14-24.2 193.94-26.45 215.49-26.45ZM214.69-21.65L214.29-19.4 193.09-21.65 214.69-21.65ZM213.84-16.85L213.44-14.6 192.24-16.85 213.84-16.85ZM212.99-12.05L212.59-9.8 191.39-12.05 212.99-12.05ZM212.14-7.25L211.74-5 190.54-7.25 212.14-7.25ZM211.29-2.4L210.89-0.15 189.69-2.4 211.29-2.4ZM272.98 0.75L272.98 0.75Q266.48 0.75 263.86-1.78 261.23-4.3 261.23-9.25L261.23-9.25Q261.23-10.65 261.43-12.23 261.63-13.8 261.93-15.6L261.93-15.6Q262.63-19.65 263.81-22.73 264.98-25.8 266.98-27.88 268.98-29.95 272.11-30.98 275.23-32 279.83-32L279.83-32Q281.08-32 282.83-31.8 284.58-31.6 286.23-31.33 287.88-31.05 288.78-30.7L288.78-30.7 286.03-23.05Q284.23-23.4 282.28-23.58 280.33-23.75 279.03-23.75L279.03-23.75Q276.23-23.75 274.78-23.3 273.33-22.85 273.08-21.25L273.08-21.25 270.63-7.1 273.78-7.1Q275.23-7.1 276.18-7.43 277.13-7.75 277.38-9.2L277.38-9.2 277.63-10.55 275.23-10.55 276.58-18.2 288.03-18.2 285.08-1.5Q281.93-0.35 278.71 0.2 275.48 0.75 272.98 0.75ZM266.43-29.6L266.43-29.6 251.13-31.25 268.68-31.25Q268.08-30.9 267.53-30.5 266.98-30.1 266.43-29.6ZM262.93-24.45L262.93-24.45 244.23-26.45 263.93-26.45Q263.68-25.95 263.43-25.48 263.18-25 262.93-24.45ZM261.88-21.65L261.28-19.6 241.88-21.65 261.88-21.65ZM260.33-14.75L260.33-14.75 240.68-16.85 260.68-16.85 260.53-15.85Q260.48-15.55 260.43-15.28 260.38-15 260.33-14.75ZM259.83-9.95L259.83-9.95 240.13-12.05 259.98-12.05Q259.83-10.95 259.83-9.95ZM260.23-5.15L260.23-5.15 240.78-7.25 259.88-7.25Q259.98-6.7 260.06-6.18 260.13-5.65 260.23-5.15ZM262.88-0.55L262.88-0.55 245.58-2.4 261.38-2.4Q262.03-1.25 262.88-0.55ZM310.08 0.6L310.08 0.6Q304.93 0.6 302.88-0.93 300.83-2.45 300.83-6.25L300.83-6.25Q300.83-7.4 300.98-8.7 301.13-10 301.38-11.55L301.38-11.55 304.03-26.45 312.43-26.45 309.03-7 311.53-7Q312.78-7 313.35-7.3 313.93-7.6 314.13-8.9L314.13-8.9 317.28-26.45 325.68-26.45 323.08-11.55Q322.28-7 320.93-4.33 319.58-1.65 317.03-0.53 314.48 0.6 310.08 0.6ZM302.43-26.45L302.08-24.2 280.88-26.45 302.43-26.45ZM301.63-21.65L301.23-19.4 280.03-21.65 301.63-21.65ZM300.78-16.85L300.38-14.6 279.18-16.85 300.78-16.85ZM299.93-12.05L299.53-9.8 278.33-12.05 299.93-12.05ZM299.38-5L299.38-5 278.18-7.25 299.33-7.25 299.33-6.25Q299.33-5.9 299.33-5.6 299.33-5.3 299.38-5ZM301.28-0.15L301.28-0.15 280.08-2.4 299.83-2.4Q300.38-1 301.28-0.15ZM344.23 0L335.83 0 340.43-26.45 353.13-26.45Q355.93-26.45 357.5-25.6 359.08-24.75 359.75-23.25 360.43-21.75 360.43-19.85L360.43-19.85Q360.43-18.35 360-16.2 359.58-14.05 358.45-12.03 357.33-10 355.18-8.8L355.18-8.8 358.03 0 348.68 0 346.78-7.7 345.58-7.7 344.23 0ZM338.78-26.45L338.43-24.2 317.23-26.45 338.78-26.45ZM337.98-21.65L337.58-19.4 316.38-21.65 337.98-21.65ZM347.58-19.15L346.78-14.55 348.38-14.55Q349.38-14.55 350.1-14.83 350.83-15.1 350.98-16.05L350.98-16.05 351.28-17.8Q351.28-17.9 351.3-17.98 351.33-18.05 351.33-18.1L351.33-18.1Q351.33-18.8 350.6-18.98 349.88-19.15 348.68-19.15L348.68-19.15 347.58-19.15ZM337.13-16.85L336.73-14.6 315.53-16.85 337.13-16.85ZM336.28-12.05L335.88-9.8 314.68-12.05 336.28-12.05ZM335.43-7.25L335.03-5 313.83-7.25 335.43-7.25ZM334.58-2.4L334.18-0.15 312.98-2.4 334.58-2.4ZM382.47 0.6L382.47 0.6Q377.32 0.6 375.27-0.93 373.22-2.45 373.22-6.25L373.22-6.25Q373.22-7.4 373.37-8.7 373.52-10 373.77-11.55L373.77-11.55 376.42-26.45 384.82-26.45 381.42-7 383.92-7Q385.17-7 385.75-7.3 386.32-7.6 386.52-8.9L386.52-8.9 389.67-26.45 398.07-26.45 395.47-11.55Q394.67-7 393.32-4.33 391.97-1.65 389.42-0.53 386.87 0.6 382.47 0.6ZM374.82-26.45L374.47-24.2 353.27-26.45 374.82-26.45ZM374.02-21.65L373.62-19.4 352.42-21.65 374.02-21.65ZM373.17-16.85L372.77-14.6 351.57-16.85 373.17-16.85ZM372.32-12.05L371.92-9.8 350.72-12.05 372.32-12.05ZM371.77-5L371.77-5 350.57-7.25 371.72-7.25 371.72-6.25Q371.72-5.9 371.72-5.6 371.72-5.3 371.77-5ZM373.67-0.15L373.67-0.15 352.47-2.4 372.22-2.4Q372.77-1 373.67-0.15Z" opacity="1" transform="matrix(1,0,0,1,0,0)" fill="black" class="wordmark-text-0" id="SvgjsPath3180"></path></svg></g></svg></g></svg></g></svg></g><g transform="matrix(1,0,0,1,162.29088246776791,0)"><svg viewBox="0 0 70.93823506446414 70.93823506446414" height="70.93823506446414" width="70.93823506446414"><g><svg></svg></g><g id="SvgjsG3179"><svg viewBox="0 0 70.93823506446414 70.93823506446414" height="70.93823506446414" width="70.93823506446414"><g><path d="M0 35.469c0-19.589 15.88-35.469 35.469-35.469 19.589 0 35.469 15.88 35.469 35.469 0 19.589-15.88 35.469-35.469 35.469-19.589 0-35.469-15.88-35.469-35.469zM35.469 68.064c18.002 0 32.595-14.593 32.595-32.595 0-18.002-14.593-32.595-32.595-32.595-18.002 0-32.595 14.593-32.595 32.595 0 18.002 14.593 32.595 32.595 32.595z" fill="black" stroke="transparent"></path></g><g transform="matrix(1,0,0,1,19.202275515586603,21.063097501855545)"><svg viewBox="0 0 32.53368403329093 28.812040060753052" height="28.812040060753052" width="32.53368403329093"><g><svg xmlns="http://www.w3.org/2000/svg" xmlns:xlink="http://www.w3.org/1999/xlink" version="1.1" x="0" y="0" viewBox="25.899860075925623 52.199999999999996 460.2501399240743 407.6004874176015" style="enable-background:new 0 0 512 512;" xml:space="preserve" height="28.812040060753052" width="32.53368403329093" class="icon-cg-0" data-fill-palette-color="accent" id="SvgjsSvg3178"><g fill="black"><path d="M376.8 262c2.9 16.3 17.1 28.2 33.7 28.2 18.9 0 34.3-15.3 34.3-34.2 0-18.9-15.3-34.3-34.2-34.3-16.6 0-30.8 11.9-33.7 28.2H135.4c-2.9-16.3-17.1-28.2-33.7-28.2-18.9 0-34.2 15.3-34.2 34.2 0 18.9 15.3 34.2 34.2 34.2 9.1 0 17.8-3.6 24.2-10h0c5-4.9 8.3-11.3 9.5-18.2H376.8z" fill="black"></path><path d="M476.1 325.7c-13.4-13.4-35.1-13.4-48.5 0 0 0 0 0 0 0h0c-5 5-8.3 11.4-9.5 18.3h-56.2c-12.6-0.1-22.8-10.4-22.8-23 0-19.2-15.5-34.9-34.8-35h-96.6c-19.2 0.1-34.8 15.8-34.8 35 0 12.6-10.2 22.9-22.8 23H94c-1.2-6.9-4.5-13.3-9.5-18.3-13.4-13.3-35-13.2-48.3 0.1-13.3 13.4-13.2 35 0.1 48.3 13.3 13.2 34.8 13.2 48.1 0 5-4.9 8.3-11.2 9.5-18.1h56.2c19.2-0.1 34.8-15.8 34.8-35 0-12.6 10.2-22.9 22.8-23h96.6c12.6 0.1 22.8 10.4 22.8 23 0 19.2 15.5 34.9 34.8 35h56.2c1.2 6.9 4.5 13.2 9.5 18.1 13.4 13.4 35.1 13.4 48.5 0C489.4 360.8 489.5 339.1 476.1 325.7z" fill="black"></path><path d="M391.6 391.3c-9.1 0-17.9 3.6-24.3 10.1-5.8 5.8-9.3 13.5-9.9 21.6h-8.1c-12.7-0.1-23.9-8-28.3-19.9l-18.7-50.5c-6.2-16.5-21.9-27.5-39.6-27.6h-13c-17.6 0-33.4 11-39.6 27.5l-18.7 50.6c-4.4 11.9-15.7 19.8-28.3 19.9h-8.1c-1.5-18.7-17.9-32.6-36.6-31.1-18.7 1.5-32.6 17.9-31.1 36.6s17.9 32.6 36.6 31.1c8-0.6 15.5-4.1 21.2-9.8 4.1-4.2 7.1-9.3 8.7-14.8h9.2c17.7-0.1 33.4-11.1 39.6-27.7l18.7-50.5c4.4-11.8 15.7-19.7 28.3-19.7h13c12.6 0 23.9 7.8 28.3 19.7l18.7 50.6c6.2 16.6 21.9 27.6 39.6 27.7h9.2c1.8 5.5 4.7 10.6 8.6 14.8v-0.1c7 6.5 15.1 10 24.3 10 18.9 0.1 34.3-15.2 34.3-34.1C425.7 406.7 410.5 391.4 391.6 391.3z" fill="black"></path><path d="M84.4 186.4c0 0 0.1-0.1 0.1-0.1 5-5 8.3-11.4 9.5-18.3h56.2c12.6 0.1 22.8 10.4 22.8 23 0 19.2 15.5 34.9 34.8 35h96.6c19.2-0.1 34.8-15.8 34.8-35 0-12.6 10.2-22.9 22.8-23h56.2c1.2 6.9 4.5 13.3 9.5 18.3 13.4 13.4 35.1 13.4 48.4 0 13.4-13.4 13.4-35.1 0-48.4-13.4-13.4-35-13.4-48.4 0l0 0c-5 4.9-8.3 11.2-9.5 18.1h-56.2c-19.2 0.1-34.8 15.8-34.8 35 0 12.6-10.2 22.9-22.8 23h-96.6c-12.6-0.1-22.8-10.4-22.8-23 0-19.2-15.5-34.9-34.8-35H94c-1.2-6.9-4.5-13.2-9.5-18.1-13.4-13.4-35.1-13.5-48.5-0.1-13.4 13.4-13.5 35.1-0.1 48.5C49.3 199.7 71 199.8 84.4 186.4z" fill="black"></path><path d="M144.9 110.6c5.8-5.8 9.3-13.4 9.9-21.6h8.1c12.7 0.1 23.9 8 28.3 19.9l18.7 50.5c6.2 16.5 21.9 27.5 39.6 27.6h13c17.6 0 33.4-11 39.6-27.5l18.7-50.6c4.4-11.9 15.7-19.8 28.3-19.9h8.1c1.5 18.7 17.9 32.6 36.6 31.1s32.6-17.9 31.1-36.6-17.9-32.6-36.6-31.1c-8 0.6-15.5 4.1-21.2 9.8-4.1 4.2-7.1 9.3-8.7 14.8h-9.2c-17.7 0.1-33.4 11.1-39.6 27.7l-18.7 50.5c-4.4 11.8-15.7 19.7-28.3 19.7h-13c-12.6 0-23.9-7.8-28.3-19.7l-18.7-50.6c-6.2-16.6-21.9-27.6-39.6-27.7h-9.2c-1.8-5.5-4.7-10.6-8.6-14.8v0.1c-7-6.5-15.1-10-24.3-10-9.1 0-17.9 3.6-24.3 10.1-13.3 13.4-13.3 35 0.1 48.4C110 124 131.6 124 144.9 110.6z" fill="black"></path></g></svg></g></svg></g></svg></g></svg></g><g></g></svg></g><defs><mask></mask></defs></svg><rect width="395.52" height="117.86047192115706" fill="black" stroke="none" visibility="hidden"></rect></g></mask><mask><g id="SvgjsG3177"><svg viewBox="0 0 395.52 117.86047192115706" height="117.86047192115706" width="395.52"><g><svg viewBox="0 0 395.52 117.86047192115706" height="117.86047192115706" width="395.52"><g transform="matrix(1,0,0,1,0,85.98724357470036)"><svg viewBox="0 0 395.52 31.873228346456692" height="31.873228346456692" width="395.52"><g id="SvgjsG3176"><svg viewBox="0 0 395.52 31.873228346456692" height="31.873228346456692" width="395.52" id="SvgjsSvg3175"><g><svg viewBox="0 0 395.52 31.873228346456692" height="31.873228346456692" width="395.52"><g transform="matrix(1,0,0,1,0,0)"><svg width="395.52" viewBox="-8.3 -32 406.37 32.75" height="31.873228346456692" data-palette-color="url(#f8d25b7a-f099-46dd-8aa4-e64c7ee9dade)"></svg></g></svg></g></svg></g></svg></g><g transform="matrix(1,0,0,1,162.29088246776791,0)"><svg viewBox="0 0 70.93823506446414 70.93823506446414" height="70.93823506446414" width="70.93823506446414"><g><svg></svg></g><g id="SvgjsG3174"><svg viewBox="0 0 70.93823506446414 70.93823506446414" height="70.93823506446414" width="70.93823506446414"><g><path d="M0 35.469c0-19.589 15.88-35.469 35.469-35.469 19.589 0 35.469 15.88 35.469 35.469 0 19.589-15.88 35.469-35.469 35.469-19.589 0-35.469-15.88-35.469-35.469zM35.469 68.064c18.002 0 32.595-14.593 32.595-32.595 0-18.002-14.593-32.595-32.595-32.595-18.002 0-32.595 14.593-32.595 32.595 0 18.002 14.593 32.595 32.595 32.595z" fill="black" stroke="transparent"></path></g><g transform="matrix(1,0,0,1,19.202275515586603,21.063097501855545)"><svg viewBox="0 0 32.53368403329093 28.812040060753052" height="28.812040060753052" width="32.53368403329093"><g><svg xmlns="http://www.w3.org/2000/svg" xmlns:xlink="http://www.w3.org/1999/xlink" version="1.1" x="0" y="0" viewBox="25.899860075925623 52.199999999999996 460.2501399240743 407.6004874176015" style="enable-background:new 0 0 512 512;" xml:space="preserve" height="28.812040060753052" width="32.53368403329093" class="icon-cg-0" data-fill-palette-color="accent" id="SvgjsSvg3173"><g fill="black"><path d="M376.8 262c2.9 16.3 17.1 28.2 33.7 28.2 18.9 0 34.3-15.3 34.3-34.2 0-18.9-15.3-34.3-34.2-34.3-16.6 0-30.8 11.9-33.7 28.2H135.4c-2.9-16.3-17.1-28.2-33.7-28.2-18.9 0-34.2 15.3-34.2 34.2 0 18.9 15.3 34.2 34.2 34.2 9.1 0 17.8-3.6 24.2-10h0c5-4.9 8.3-11.3 9.5-18.2H376.8z" fill="black"></path><path d="M476.1 325.7c-13.4-13.4-35.1-13.4-48.5 0 0 0 0 0 0 0h0c-5 5-8.3 11.4-9.5 18.3h-56.2c-12.6-0.1-22.8-10.4-22.8-23 0-19.2-15.5-34.9-34.8-35h-96.6c-19.2 0.1-34.8 15.8-34.8 35 0 12.6-10.2 22.9-22.8 23H94c-1.2-6.9-4.5-13.3-9.5-18.3-13.4-13.3-35-13.2-48.3 0.1-13.3 13.4-13.2 35 0.1 48.3 13.3 13.2 34.8 13.2 48.1 0 5-4.9 8.3-11.2 9.5-18.1h56.2c19.2-0.1 34.8-15.8 34.8-35 0-12.6 10.2-22.9 22.8-23h96.6c12.6 0.1 22.8 10.4 22.8 23 0 19.2 15.5 34.9 34.8 35h56.2c1.2 6.9 4.5 13.2 9.5 18.1 13.4 13.4 35.1 13.4 48.5 0C489.4 360.8 489.5 339.1 476.1 325.7z" fill="black"></path><path d="M391.6 391.3c-9.1 0-17.9 3.6-24.3 10.1-5.8 5.8-9.3 13.5-9.9 21.6h-8.1c-12.7-0.1-23.9-8-28.3-19.9l-18.7-50.5c-6.2-16.5-21.9-27.5-39.6-27.6h-13c-17.6 0-33.4 11-39.6 27.5l-18.7 50.6c-4.4 11.9-15.7 19.8-28.3 19.9h-8.1c-1.5-18.7-17.9-32.6-36.6-31.1-18.7 1.5-32.6 17.9-31.1 36.6s17.9 32.6 36.6 31.1c8-0.6 15.5-4.1 21.2-9.8 4.1-4.2 7.1-9.3 8.7-14.8h9.2c17.7-0.1 33.4-11.1 39.6-27.7l18.7-50.5c4.4-11.8 15.7-19.7 28.3-19.7h13c12.6 0 23.9 7.8 28.3 19.7l18.7 50.6c6.2 16.6 21.9 27.6 39.6 27.7h9.2c1.8 5.5 4.7 10.6 8.6 14.8v-0.1c7 6.5 15.1 10 24.3 10 18.9 0.1 34.3-15.2 34.3-34.1C425.7 406.7 410.5 391.4 391.6 391.3z" fill="black"></path><path d="M84.4 186.4c0 0 0.1-0.1 0.1-0.1 5-5 8.3-11.4 9.5-18.3h56.2c12.6 0.1 22.8 10.4 22.8 23 0 19.2 15.5 34.9 34.8 35h96.6c19.2-0.1 34.8-15.8 34.8-35 0-12.6 10.2-22.9 22.8-23h56.2c1.2 6.9 4.5 13.3 9.5 18.3 13.4 13.4 35.1 13.4 48.4 0 13.4-13.4 13.4-35.1 0-48.4-13.4-13.4-35-13.4-48.4 0l0 0c-5 4.9-8.3 11.2-9.5 18.1h-56.2c-19.2 0.1-34.8 15.8-34.8 35 0 12.6-10.2 22.9-22.8 23h-96.6c-12.6-0.1-22.8-10.4-22.8-23 0-19.2-15.5-34.9-34.8-35H94c-1.2-6.9-4.5-13.2-9.5-18.1-13.4-13.4-35.1-13.5-48.5-0.1-13.4 13.4-13.5 35.1-0.1 48.5C49.3 199.7 71 199.8 84.4 186.4z" fill="black"></path><path d="M144.9 110.6c5.8-5.8 9.3-13.4 9.9-21.6h8.1c12.7 0.1 23.9 8 28.3 19.9l18.7 50.5c6.2 16.5 21.9 27.5 39.6 27.6h13c17.6 0 33.4-11 39.6-27.5l18.7-50.6c4.4-11.9 15.7-19.8 28.3-19.9h8.1c1.5 18.7 17.9 32.6 36.6 31.1s32.6-17.9 31.1-36.6-17.9-32.6-36.6-31.1c-8 0.6-15.5 4.1-21.2 9.8-4.1 4.2-7.1 9.3-8.7 14.8h-9.2c-17.7 0.1-33.4 11.1-39.6 27.7l-18.7 50.5c-4.4 11.8-15.7 19.7-28.3 19.7h-13c-12.6 0-23.9-7.8-28.3-19.7l-18.7-50.6c-6.2-16.6-21.9-27.6-39.6-27.7h-9.2c-1.8-5.5-4.7-10.6-8.6-14.8v0.1c-7-6.5-15.1-10-24.3-10-9.1 0-17.9 3.6-24.3 10.1-13.3 13.4-13.3 35 0.1 48.4C110 124 131.6 124 144.9 110.6z" fill="black"></path></g></svg></g></svg></g></svg></g></svg></g><g></g></svg></g><defs><mask></mask></defs><mask><g id="SvgjsG3172"><svg viewBox="0 0 395.52 117.86047192115706" height="117.86047192115706" width="395.52"><g><svg viewBox="0 0 395.52 117.86047192115706" height="117.86047192115706" width="395.52"><g transform="matrix(1,0,0,1,0,85.98724357470036)"><svg viewBox="0 0 395.52 31.873228346456692" height="31.873228346456692" width="395.52"><g id="SvgjsG3171"><svg viewBox="0 0 395.52 31.873228346456692" height="31.873228346456692" width="395.52" id="SvgjsSvg3170"><g><svg viewBox="0 0 395.52 31.873228346456692" height="31.873228346456692" width="395.52"><g transform="matrix(1,0,0,1,0,0)"><svg width="395.52" viewBox="-8.3 -32 406.37 32.75" height="31.873228346456692" data-palette-color="url(#f8d25b7a-f099-46dd-8aa4-e64c7ee9dade)"><path d="M21.9 0.75L21.9 0.75Q18.95 0.75 16.13 0.43 13.3 0.1 10.65-0.55L10.65-0.55 13.45-8.8Q15.35-8.3 17.55-7.98 19.75-7.65 21.7-7.65L21.7-7.65Q23.3-7.65 24.5-7.73 25.7-7.8 26.8-7.95L26.8-7.95 27.2-10.45 23.05-10.85Q18.15-11.35 16.25-13.08 14.35-14.8 14.35-17.8L14.35-17.8Q14.35-19.15 14.65-20.8L14.65-20.8Q15.45-25.05 16.98-27.5 18.5-29.95 21.35-30.98 24.2-32 28.9-32L28.9-32Q31.65-32 34.3-31.7 36.95-31.4 39.4-30.75L39.4-30.75 36.8-22.75Q34.85-23.1 33.1-23.3 31.35-23.5 29.2-23.5L29.2-23.5Q28.05-23.5 27.25-23.45 26.45-23.4 25.3-23.25L25.3-23.25 24.9-20.8 28.25-20.45Q31.85-20.1 33.9-19.07 35.95-18.05 36.8-16.53 37.65-15 37.65-13L37.65-13Q37.65-12.4 37.58-11.78 37.5-11.15 37.4-10.45L37.4-10.45Q36.7-6.4 35.15-4.1 33.6-1.8 31.5-0.78 29.4 0.25 26.93 0.5 24.45 0.75 21.9 0.75ZM16.15-29.2L16.15-29.2-3.15-31.25 18.35-31.25Q17.7-30.85 17.18-30.33 16.65-29.8 16.15-29.2ZM14.6-26.45L13.85-24.25-6.9-26.45 14.6-26.45ZM12.9-19.4L12.9-19.4-8.3-21.65 13.25-21.65Q13.2-21.5 13.18-21.35 13.15-21.2 13.15-21.05L13.15-21.05Q13.1-20.7 13.03-20.3 12.95-19.9 12.9-19.4ZM13.3-14.6L13.3-14.6-7.85-16.85 12.9-16.85Q12.95-16.2 13.03-15.68 13.1-15.15 13.3-14.6ZM19.9-9.8L19.9-9.8-6.55-12.05 15-12.05Q16.65-10.45 19.9-9.8ZM11.3-7.25L10.55-5.05-7.4-7.25 11.3-7.25ZM9.7-2.4L8.95-0.2-8.25-2.4 9.7-2.4ZM60.5 0.6L60.5 0.6Q55.05 0.6 52.87-1.53 50.7-3.65 50.7-7.9L50.7-7.9Q50.7-9.05 50.85-10.4 51-11.75 51.25-13.2L51.25-13.2Q52.05-17.8 53.6-20.85 55.15-23.9 57.95-25.43 60.75-26.95 65.35-26.95L65.35-26.95Q70.85-26.95 73.1-24.83 75.35-22.7 75.35-18.4L75.35-18.4Q75.35-17.3 75.2-15.98 75.05-14.65 74.8-13.2L74.8-13.2Q74-8.65 72.45-5.58 70.9-2.5 68.05-0.95 65.2 0.6 60.5 0.6ZM54.5-24.8L54.5-24.8 39.15-26.45 56.55-26.45Q55.35-25.75 54.5-24.8ZM51.35-19.65L51.35-19.65 32.45-21.65 52.2-21.65Q52-21.15 51.77-20.68 51.55-20.2 51.35-19.65ZM60.85-17.5L59-7 61.95-7Q63.25-7 64.07-7.3 64.9-7.6 65.1-8.9L65.1-8.9 67-19.35 63.95-19.35Q62.75-19.35 61.9-19.05 61.05-18.75 60.85-17.5L60.85-17.5ZM50.45-16.85L50-14.75 30.45-16.85 50.45-16.85ZM49.25-9.95L49.25-9.95 29.55-12.05 49.5-12.05Q49.45-11.5 49.37-10.98 49.3-10.45 49.25-9.95ZM49.4-5.15L49.4-5.15 29.75-7.25 49.2-7.25Q49.2-6.7 49.27-6.18 49.35-5.65 49.4-5.15ZM51.55-0.55L51.55-0.55 34.1-2.4 50.25-2.4Q50.5-1.9 50.82-1.43 51.15-0.95 51.55-0.55ZM96.45 0L88.05 0 92.65-26.45 109.3-26.45 107-18.95 99.75-18.95 99.15-15.55 105.75-15.55 104.75-9.6 98.15-9.6 96.45 0ZM91.05-26.45L90.7-24.2 69.5-26.45 91.05-26.45ZM90.25-21.65L89.85-19.4 68.65-21.65 90.25-21.65ZM89.4-16.85L89-14.6 67.8-16.85 89.4-16.85ZM88.55-12.05L88.15-9.8 66.95-12.05 88.55-12.05ZM87.7-7.25L87.3-5 66.1-7.25 87.7-7.25ZM86.85-2.4L86.45-0.15 65.25-2.4 86.85-2.4ZM130.04 0L121.24 0 124.54-18.95 118.99-18.95 120.34-26.45 140.09-26.45 138.74-18.95 133.34-18.95 130.04 0ZM118.69-26.45L118.34-24.2 97.14-26.45 118.69-26.45ZM117.89-21.65L117.49-19.4 96.29-21.65 117.89-21.65ZM122.69-16.85L122.29-14.6 101.09-16.85 122.69-16.85ZM121.84-12.05L121.44-9.8 100.24-12.05 121.84-12.05ZM120.99-7.25L120.59-5 99.39-7.25 120.99-7.25ZM120.14-2.4L119.74-0.15 98.54-2.4 120.14-2.4ZM166.39 0L148.74 0 153.34-26.45 170.94-26.45 168.59-18.95 160.44-18.95 159.84-15.55 167.34-15.55 166.49-10.75 159.04-10.75 158.44-7.35 167.69-7.35 166.39 0ZM151.69-26.45L151.34-24.2 130.14-26.45 151.69-26.45ZM150.89-21.65L150.49-19.4 129.29-21.65 150.89-21.65ZM150.04-16.85L149.64-14.6 128.44-16.85 150.04-16.85ZM149.19-12.05L148.79-9.8 127.59-12.05 149.19-12.05ZM148.34-7.25L147.94-5 126.74-7.25 148.34-7.25ZM147.49-2.4L147.09-0.15 125.89-2.4 147.49-2.4ZM191.34 0.6L191.34 0.6Q185.84 0.6 183.64-1.5 181.44-3.6 181.44-7.8L181.44-7.8Q181.44-8.95 181.61-10.33 181.79-11.7 182.04-13.2L182.04-13.2Q182.84-17.8 184.34-20.85 185.84-23.9 188.66-25.43 191.49-26.95 196.19-26.95L196.19-26.95Q197.14-26.95 198.46-26.85 199.79-26.75 200.99-26.5 202.19-26.25 202.84-25.85L202.84-25.85 200.29-18.9Q198.94-19.3 197.61-19.45 196.29-19.6 195.54-19.6L195.54-19.6Q193.79-19.6 192.91-19.28 192.04-18.95 191.84-17.9L191.84-17.9 189.89-7.2Q190.69-7 191.34-6.98 191.99-6.95 192.64-6.95L192.64-6.95Q194.24-6.95 195.96-7.25 197.69-7.55 199.09-8.05L199.09-8.05 198.29-0.55Q196.74 0.1 195.06 0.35 193.39 0.6 191.34 0.6ZM185.29-24.8L185.29-24.8 169.94-26.45 187.34-26.45Q186.14-25.75 185.29-24.8ZM182.14-19.65L182.14-19.65 163.24-21.65 182.99-21.65Q182.79-21.15 182.56-20.68 182.34-20.2 182.14-19.65ZM181.24-16.85L180.79-14.75 161.24-16.85 181.24-16.85ZM180.04-9.95L180.04-9.95 160.34-12.05 180.29-12.05Q180.24-11.5 180.16-10.98 180.09-10.45 180.04-9.95ZM180.19-5.15L180.19-5.15 160.54-7.25 179.99-7.25Q179.99-6.7 180.06-6.18 180.14-5.65 180.19-5.15ZM182.34-0.55L182.34-0.55 164.89-2.4 181.04-2.4Q181.29-1.9 181.61-1.43 181.94-0.95 182.34-0.55ZM220.94 0L212.54 0 217.14-26.45 225.59-26.45 223.94-17.3 229.59-17.3 231.19-26.45 239.64-26.45 234.99 0 226.59 0 228.14-9.15 222.54-9.15 220.94 0ZM215.49-26.45L215.14-24.2 193.94-26.45 215.49-26.45ZM214.69-21.65L214.29-19.4 193.09-21.65 214.69-21.65ZM213.84-16.85L213.44-14.6 192.24-16.85 213.84-16.85ZM212.99-12.05L212.59-9.8 191.39-12.05 212.99-12.05ZM212.14-7.25L211.74-5 190.54-7.25 212.14-7.25ZM211.29-2.4L210.89-0.15 189.69-2.4 211.29-2.4ZM272.98 0.75L272.98 0.75Q266.48 0.75 263.86-1.78 261.23-4.3 261.23-9.25L261.23-9.25Q261.23-10.65 261.43-12.23 261.63-13.8 261.93-15.6L261.93-15.6Q262.63-19.65 263.81-22.73 264.98-25.8 266.98-27.88 268.98-29.95 272.11-30.98 275.23-32 279.83-32L279.83-32Q281.08-32 282.83-31.8 284.58-31.6 286.23-31.33 287.88-31.05 288.78-30.7L288.78-30.7 286.03-23.05Q284.23-23.4 282.28-23.58 280.33-23.75 279.03-23.75L279.03-23.75Q276.23-23.75 274.78-23.3 273.33-22.85 273.08-21.25L273.08-21.25 270.63-7.1 273.78-7.1Q275.23-7.1 276.18-7.43 277.13-7.75 277.38-9.2L277.38-9.2 277.63-10.55 275.23-10.55 276.58-18.2 288.03-18.2 285.08-1.5Q281.93-0.35 278.71 0.2 275.48 0.75 272.98 0.75ZM266.43-29.6L266.43-29.6 251.13-31.25 268.68-31.25Q268.08-30.9 267.53-30.5 266.98-30.1 266.43-29.6ZM262.93-24.45L262.93-24.45 244.23-26.45 263.93-26.45Q263.68-25.95 263.43-25.48 263.18-25 262.93-24.45ZM261.88-21.65L261.28-19.6 241.88-21.65 261.88-21.65ZM260.33-14.75L260.33-14.75 240.68-16.85 260.68-16.85 260.53-15.85Q260.48-15.55 260.43-15.28 260.38-15 260.33-14.75ZM259.83-9.95L259.83-9.95 240.13-12.05 259.98-12.05Q259.83-10.95 259.83-9.95ZM260.23-5.15L260.23-5.15 240.78-7.25 259.88-7.25Q259.98-6.7 260.06-6.18 260.13-5.65 260.23-5.15ZM262.88-0.55L262.88-0.55 245.58-2.4 261.38-2.4Q262.03-1.25 262.88-0.55ZM310.08 0.6L310.08 0.6Q304.93 0.6 302.88-0.93 300.83-2.45 300.83-6.25L300.83-6.25Q300.83-7.4 300.98-8.7 301.13-10 301.38-11.55L301.38-11.55 304.03-26.45 312.43-26.45 309.03-7 311.53-7Q312.78-7 313.35-7.3 313.93-7.6 314.13-8.9L314.13-8.9 317.28-26.45 325.68-26.45 323.08-11.55Q322.28-7 320.93-4.33 319.58-1.65 317.03-0.53 314.48 0.6 310.08 0.6ZM302.43-26.45L302.08-24.2 280.88-26.45 302.43-26.45ZM301.63-21.65L301.23-19.4 280.03-21.65 301.63-21.65ZM300.78-16.85L300.38-14.6 279.18-16.85 300.78-16.85ZM299.93-12.05L299.53-9.8 278.33-12.05 299.93-12.05ZM299.38-5L299.38-5 278.18-7.25 299.33-7.25 299.33-6.25Q299.33-5.9 299.33-5.6 299.33-5.3 299.38-5ZM301.28-0.15L301.28-0.15 280.08-2.4 299.83-2.4Q300.38-1 301.28-0.15ZM344.23 0L335.83 0 340.43-26.45 353.13-26.45Q355.93-26.45 357.5-25.6 359.08-24.75 359.75-23.25 360.43-21.75 360.43-19.85L360.43-19.85Q360.43-18.35 360-16.2 359.58-14.05 358.45-12.03 357.33-10 355.18-8.8L355.18-8.8 358.03 0 348.68 0 346.78-7.7 345.58-7.7 344.23 0ZM338.78-26.45L338.43-24.2 317.23-26.45 338.78-26.45ZM337.98-21.65L337.58-19.4 316.38-21.65 337.98-21.65ZM347.58-19.15L346.78-14.55 348.38-14.55Q349.38-14.55 350.1-14.83 350.83-15.1 350.98-16.05L350.98-16.05 351.28-17.8Q351.28-17.9 351.3-17.98 351.33-18.05 351.33-18.1L351.33-18.1Q351.33-18.8 350.6-18.98 349.88-19.15 348.68-19.15L348.68-19.15 347.58-19.15ZM337.13-16.85L336.73-14.6 315.53-16.85 337.13-16.85ZM336.28-12.05L335.88-9.8 314.68-12.05 336.28-12.05ZM335.43-7.25L335.03-5 313.83-7.25 335.43-7.25ZM334.58-2.4L334.18-0.15 312.98-2.4 334.58-2.4ZM382.47 0.6L382.47 0.6Q377.32 0.6 375.27-0.93 373.22-2.45 373.22-6.25L373.22-6.25Q373.22-7.4 373.37-8.7 373.52-10 373.77-11.55L373.77-11.55 376.42-26.45 384.82-26.45 381.42-7 383.92-7Q385.17-7 385.75-7.3 386.32-7.6 386.52-8.9L386.52-8.9 389.67-26.45 398.07-26.45 395.47-11.55Q394.67-7 393.32-4.33 391.97-1.65 389.42-0.53 386.87 0.6 382.47 0.6ZM374.82-26.45L374.47-24.2 353.27-26.45 374.82-26.45ZM374.02-21.65L373.62-19.4 352.42-21.65 374.02-21.65ZM373.17-16.85L372.77-14.6 351.57-16.85 373.17-16.85ZM372.32-12.05L371.92-9.8 350.72-12.05 372.32-12.05ZM371.77-5L371.77-5 350.57-7.25 371.72-7.25 371.72-6.25Q371.72-5.9 371.72-5.6 371.72-5.3 371.77-5ZM373.67-0.15L373.67-0.15 352.47-2.4 372.22-2.4Q372.77-1 373.67-0.15Z" opacity="1" transform="matrix(1,0,0,1,0,0)" fill="black" class="wordmark-text-0" id="SvgjsPath3169"></path></svg></g></svg></g></svg></g></svg></g><g transform="matrix(1,0,0,1,162.29088246776791,0)"><svg viewBox="0 0 70.93823506446414 70.93823506446414" height="70.93823506446414" width="70.93823506446414"><g><svg></svg></g><g id="SvgjsG3168"><svg viewBox="0 0 70.93823506446414 70.93823506446414" height="70.93823506446414" width="70.93823506446414"><g><path d="M0 35.469c0-19.589 15.88-35.469 35.469-35.469 19.589 0 35.469 15.88 35.469 35.469 0 19.589-15.88 35.469-35.469 35.469-19.589 0-35.469-15.88-35.469-35.469zM35.469 68.064c18.002 0 32.595-14.593 32.595-32.595 0-18.002-14.593-32.595-32.595-32.595-18.002 0-32.595 14.593-32.595 32.595 0 18.002 14.593 32.595 32.595 32.595z" fill="black" stroke="transparent"></path></g><g transform="matrix(1,0,0,1,19.202275515586603,21.063097501855545)"><svg viewBox="0 0 32.53368403329093 28.812040060753052" height="28.812040060753052" width="32.53368403329093"><g><svg xmlns="http://www.w3.org/2000/svg" xmlns:xlink="http://www.w3.org/1999/xlink" version="1.1" x="0" y="0" viewBox="25.899860075925623 52.199999999999996 460.2501399240743 407.6004874176015" style="enable-background:new 0 0 512 512;" xml:space="preserve" height="28.812040060753052" width="32.53368403329093" class="icon-cg-0" data-fill-palette-color="accent" id="SvgjsSvg3167"><g fill="black"><path d="M376.8 262c2.9 16.3 17.1 28.2 33.7 28.2 18.9 0 34.3-15.3 34.3-34.2 0-18.9-15.3-34.3-34.2-34.3-16.6 0-30.8 11.9-33.7 28.2H135.4c-2.9-16.3-17.1-28.2-33.7-28.2-18.9 0-34.2 15.3-34.2 34.2 0 18.9 15.3 34.2 34.2 34.2 9.1 0 17.8-3.6 24.2-10h0c5-4.9 8.3-11.3 9.5-18.2H376.8z" fill="black"></path><path d="M476.1 325.7c-13.4-13.4-35.1-13.4-48.5 0 0 0 0 0 0 0h0c-5 5-8.3 11.4-9.5 18.3h-56.2c-12.6-0.1-22.8-10.4-22.8-23 0-19.2-15.5-34.9-34.8-35h-96.6c-19.2 0.1-34.8 15.8-34.8 35 0 12.6-10.2 22.9-22.8 23H94c-1.2-6.9-4.5-13.3-9.5-18.3-13.4-13.3-35-13.2-48.3 0.1-13.3 13.4-13.2 35 0.1 48.3 13.3 13.2 34.8 13.2 48.1 0 5-4.9 8.3-11.2 9.5-18.1h56.2c19.2-0.1 34.8-15.8 34.8-35 0-12.6 10.2-22.9 22.8-23h96.6c12.6 0.1 22.8 10.4 22.8 23 0 19.2 15.5 34.9 34.8 35h56.2c1.2 6.9 4.5 13.2 9.5 18.1 13.4 13.4 35.1 13.4 48.5 0C489.4 360.8 489.5 339.1 476.1 325.7z" fill="black"></path><path d="M391.6 391.3c-9.1 0-17.9 3.6-24.3 10.1-5.8 5.8-9.3 13.5-9.9 21.6h-8.1c-12.7-0.1-23.9-8-28.3-19.9l-18.7-50.5c-6.2-16.5-21.9-27.5-39.6-27.6h-13c-17.6 0-33.4 11-39.6 27.5l-18.7 50.6c-4.4 11.9-15.7 19.8-28.3 19.9h-8.1c-1.5-18.7-17.9-32.6-36.6-31.1-18.7 1.5-32.6 17.9-31.1 36.6s17.9 32.6 36.6 31.1c8-0.6 15.5-4.1 21.2-9.8 4.1-4.2 7.1-9.3 8.7-14.8h9.2c17.7-0.1 33.4-11.1 39.6-27.7l18.7-50.5c4.4-11.8 15.7-19.7 28.3-19.7h13c12.6 0 23.9 7.8 28.3 19.7l18.7 50.6c6.2 16.6 21.9 27.6 39.6 27.7h9.2c1.8 5.5 4.7 10.6 8.6 14.8v-0.1c7 6.5 15.1 10 24.3 10 18.9 0.1 34.3-15.2 34.3-34.1C425.7 406.7 410.5 391.4 391.6 391.3z" fill="black"></path><path d="M84.4 186.4c0 0 0.1-0.1 0.1-0.1 5-5 8.3-11.4 9.5-18.3h56.2c12.6 0.1 22.8 10.4 22.8 23 0 19.2 15.5 34.9 34.8 35h96.6c19.2-0.1 34.8-15.8 34.8-35 0-12.6 10.2-22.9 22.8-23h56.2c1.2 6.9 4.5 13.3 9.5 18.3 13.4 13.4 35.1 13.4 48.4 0 13.4-13.4 13.4-35.1 0-48.4-13.4-13.4-35-13.4-48.4 0l0 0c-5 4.9-8.3 11.2-9.5 18.1h-56.2c-19.2 0.1-34.8 15.8-34.8 35 0 12.6-10.2 22.9-22.8 23h-96.6c-12.6-0.1-22.8-10.4-22.8-23 0-19.2-15.5-34.9-34.8-35H94c-1.2-6.9-4.5-13.2-9.5-18.1-13.4-13.4-35.1-13.5-48.5-0.1-13.4 13.4-13.5 35.1-0.1 48.5C49.3 199.7 71 199.8 84.4 186.4z" fill="black"></path><path d="M144.9 110.6c5.8-5.8 9.3-13.4 9.9-21.6h8.1c12.7 0.1 23.9 8 28.3 19.9l18.7 50.5c6.2 16.5 21.9 27.5 39.6 27.6h13c17.6 0 33.4-11 39.6-27.5l18.7-50.6c4.4-11.9 15.7-19.8 28.3-19.9h8.1c1.5 18.7 17.9 32.6 36.6 31.1s32.6-17.9 31.1-36.6-17.9-32.6-36.6-31.1c-8 0.6-15.5 4.1-21.2 9.8-4.1 4.2-7.1 9.3-8.7 14.8h-9.2c-17.7 0.1-33.4 11.1-39.6 27.7l-18.7 50.5c-4.4 11.8-15.7 19.7-28.3 19.7h-13c-12.6 0-23.9-7.8-28.3-19.7l-18.7-50.6c-6.2-16.6-21.9-27.6-39.6-27.7h-9.2c-1.8-5.5-4.7-10.6-8.6-14.8v0.1c-7-6.5-15.1-10-24.3-10-9.1 0-17.9 3.6-24.3 10.1-13.3 13.4-13.3 35 0.1 48.4C110 124 131.6 124 144.9 110.6z" fill="black"></path></g></svg></g></svg></g></svg></g></svg></g><g></g></svg></g><defs><mask></mask></defs></svg><rect width="395.52" height="117.86047192115706" fill="black" stroke="none" visibility="hidden"></rect></g></mask></svg><rect width="395.52" height="117.86047192115706" fill="black" stroke="none" visibility="hidden"></rect></g></mask></svg><rect width="395.52" height="117.86047192115706" fill="black" stroke="none" visibility="hidden"></rect></g></mask><linearGradient x1="0" x2="1" y1="0.5" y2="0.5" id="6314930d-b948-426c-bd52-e1fb77d30bec"><stop stop-color="#fff72e" offset="0"></stop><stop stop-color="#deae29" offset="1"></stop></linearGradient></svg><rect width="395.52" height="117.86047192115706" fill="none" stroke="none" visibility="hidden"></rect></g></svg></g></svg>